{"glyphs":{"0":{"ha":778,"x_min":0,"x_max":0,"o":"m 389 -14 b 53 458 193 -14 53 139 l 53 486 b 389 958 53 806 193 958 b 725 486 585 958 725 806 l 725 458 b 389 -14 725 139 585 -14 m 167 444 b 389 89 167 201 253 89 b 611 444 525 89 611 201 l 611 500 b 389 856 611 743 525 856 b 167 500 253 856 167 743 l 167 444 "},"1":{"ha":778,"x_min":0,"x_max":0,"o":"m 97 100 l 361 100 l 361 821 l 97 689 l 97 806 l 381 944 l 472 944 l 472 100 l 708 100 l 708 0 l 97 0 "},"2":{"ha":778,"x_min":0,"x_max":0,"o":"m 72 625 b 393 958 78 825 200 958 b 700 665 576 958 700 838 b 479 306 700 528 622 429 l 243 100 l 707 100 l 707 0 l 88 0 l 88 100 l 392 365 b 588 661 532 488 588 557 b 389 858 588 788 506 858 b 185 625 268 858 188 781 l 72 625 "},"3":{"ha":778,"x_min":0,"x_max":0,"o":"m 93 944 l 679 944 l 679 839 l 410 575 b 710 294 594 569 710 464 b 382 -14 710 113 575 -14 b 67 299 193 -14 71 114 l 179 299 b 385 86 181 157 268 86 b 597 292 507 86 597 161 b 381 494 597 418 511 494 l 268 494 l 268 565 l 553 844 l 93 844 "},"4":{"ha":778,"x_min":0,"x_max":0,"o":"m 483 233 l 39 233 l 39 319 l 394 944 l 594 944 l 594 333 l 740 333 l 740 233 l 594 233 l 594 0 l 483 0 m 483 333 l 483 899 l 163 333 "},"5":{"ha":778,"x_min":0,"x_max":0,"o":"m 142 944 l 682 944 l 682 844 l 243 844 l 218 519 b 417 614 256 576 322 614 b 719 306 597 614 719 483 b 392 -14 719 119 585 -14 b 78 285 211 -14 82 108 l 190 285 b 393 86 193 154 278 86 b 607 300 517 86 607 163 b 386 522 607 436 519 522 b 197 424 296 522 228 482 l 100 424 "},"6":{"ha":778,"x_min":0,"x_max":0,"o":"m 396 -14 b 57 431 196 -14 57 124 l 57 486 b 401 958 57 806 197 958 b 708 681 589 958 697 831 l 594 681 b 396 858 586 790 507 858 b 169 500 250 858 169 743 l 169 449 b 418 596 206 538 300 596 b 721 299 589 596 721 478 b 396 -14 721 117 586 -14 m 176 306 b 396 86 176 194 253 86 b 608 292 517 86 608 161 b 389 501 608 422 522 501 b 176 306 263 501 176 424 "},"7":{"ha":778,"x_min":0,"x_max":0,"o":"m 582 844 l 68 844 l 68 944 l 714 944 l 714 881 l 324 0 l 200 0 "},"8":{"ha":778,"x_min":0,"x_max":0,"o":"m 389 -14 b 60 257 196 -14 60 100 b 240 486 60 378 140 457 b 74 701 147 515 74 589 b 389 958 74 850 204 958 b 704 701 574 958 704 850 b 538 486 704 589 631 515 b 718 257 638 457 718 378 b 389 -14 718 100 582 -14 m 174 264 b 389 86 174 151 260 86 b 604 264 518 86 604 151 b 389 442 604 376 518 442 b 174 264 260 442 174 376 m 188 694 b 389 531 188 590 268 531 b 590 694 510 531 590 590 b 389 858 590 799 510 858 b 188 694 268 858 188 799 "},"9":{"ha":778,"x_min":0,"x_max":0,"o":"m 382 958 b 721 514 582 958 721 821 l 721 458 b 376 -14 721 139 581 -14 b 69 264 189 -14 81 114 l 183 264 b 382 86 192 154 271 86 b 608 444 528 86 608 201 l 608 496 b 360 349 572 407 478 349 b 57 646 189 349 57 467 b 382 958 57 828 192 958 m 169 653 b 389 443 169 522 256 443 b 601 639 515 443 601 521 b 382 858 601 750 525 858 b 169 653 261 858 169 783 "}," ":{"ha":250,"x_min":0,"x_max":0,"o":""},"A":{"ha":917,"x_min":0,"x_max":0,"o":"m 889 0 l 771 0 l 668 289 l 246 289 l 144 0 l 28 0 l 369 944 l 547 944 m 633 389 l 513 729 l 458 889 l 456 889 l 401 729 l 282 389 "},"Á":{"ha":917,"x_min":0,"x_max":0,"o":"m 889 0 l 771 0 l 668 289 l 246 289 l 144 0 l 28 0 l 369 944 l 547 944 m 633 389 l 513 729 l 458 889 l 456 889 l 401 729 l 282 389 m 508 1257 l 631 1257 l 513 1049 l 404 1049 "},"Â":{"ha":917,"x_min":0,"x_max":0,"o":"m 889 0 l 771 0 l 668 289 l 246 289 l 144 0 l 28 0 l 369 944 l 547 944 m 396 1257 l 521 1257 l 661 1049 l 563 1049 l 458 1201 l 354 1049 l 256 1049 m 633 389 l 513 729 l 458 889 l 456 889 l 401 729 l 282 389 "},"Ä":{"ha":917,"x_min":0,"x_max":0,"o":"m 889 0 l 771 0 l 668 289 l 246 289 l 144 0 l 28 0 l 369 944 l 547 944 m 281 1188 l 411 1188 l 411 1065 l 281 1065 m 633 389 l 513 729 l 458 889 l 456 889 l 401 729 l 282 389 m 506 1188 l 636 1188 l 636 1065 l 506 1065 "},"À":{"ha":917,"x_min":0,"x_max":0,"o":"m 889 0 l 771 0 l 668 289 l 246 289 l 144 0 l 28 0 l 369 944 l 547 944 m 633 389 l 513 729 l 458 889 l 456 889 l 401 729 l 282 389 m 408 1257 l 513 1049 l 404 1049 l 286 1257 "},"Å":{"ha":917,"x_min":0,"x_max":0,"o":"m 889 0 l 771 0 l 668 289 l 246 289 l 144 0 l 28 0 l 369 944 l 547 944 m 633 389 l 513 729 l 458 889 l 456 889 l 401 729 l 282 389 m 314 1179 b 458 1317 314 1258 376 1317 b 603 1179 540 1317 603 1258 b 458 1042 603 1100 540 1042 b 314 1179 376 1042 314 1100 m 392 1179 b 458 1111 392 1139 418 1111 b 525 1179 499 1111 525 1139 b 458 1247 525 1219 499 1247 b 392 1179 418 1247 392 1219 "},"Ã":{"ha":917,"x_min":0,"x_max":0,"o":"m 889 0 l 771 0 l 668 289 l 246 289 l 144 0 l 28 0 l 369 944 l 547 944 m 211 1071 b 351 1239 211 1175 261 1239 b 469 1194 401 1239 432 1219 l 494 1178 b 565 1147 525 1157 543 1147 b 624 1235 608 1147 624 1186 l 706 1235 b 565 1067 706 1133 656 1067 b 447 1111 515 1067 485 1086 l 422 1128 b 351 1158 392 1149 374 1158 b 293 1071 308 1158 293 1119 l 211 1071 m 633 389 l 513 729 l 458 889 l 456 889 l 401 729 l 282 389 "},"Æ":{"ha":1311,"x_min":0,"x_max":0,"o":"m 572 944 l 1244 944 l 1244 844 l 751 844 l 751 536 l 1203 536 l 1203 436 l 751 436 l 751 100 l 1244 100 l 1244 0 l 640 0 l 640 303 l 318 303 l 143 0 l 14 0 m 640 403 l 640 844 l 631 844 l 376 403 "},"B":{"ha":792,"x_min":0,"x_max":0,"o":"m 90 944 l 421 944 b 711 699 597 944 711 856 b 553 490 711 586 651 519 b 732 260 660 460 732 383 b 421 0 732 93 606 0 l 90 0 m 417 100 b 618 264 546 100 618 167 l 618 278 b 417 439 618 376 546 439 l 201 439 l 201 100 m 417 533 b 597 681 538 533 597 593 l 597 694 b 417 844 597 779 538 844 l 201 844 l 201 533 "},"C":{"ha":944,"x_min":0,"x_max":0,"o":"m 496 -14 b 56 472 243 -14 56 168 b 496 958 56 776 243 958 b 892 625 732 958 867 803 l 779 625 b 496 858 757 768 649 858 b 169 500 304 858 169 717 l 169 444 b 496 86 169 228 304 86 b 779 319 649 86 757 176 l 892 319 b 496 -14 867 142 732 -14 "},"Ç":{"ha":944,"x_min":0,"x_max":0,"o":"m 492 -14 l 468 -53 b 614 -171 553 -56 614 -87 b 454 -292 614 -258 546 -292 l 385 -292 l 385 -210 l 463 -210 b 525 -162 493 -210 525 -200 b 463 -117 525 -125 493 -117 l 385 -117 l 385 -53 l 411 -7 b 56 472 203 29 56 203 b 496 958 56 776 243 958 b 892 625 732 958 867 803 l 779 625 b 496 858 757 768 649 858 b 169 500 304 858 169 717 l 169 444 b 496 86 169 228 304 86 b 779 319 649 86 757 176 l 892 319 b 496 -14 867 142 732 -14 "},"D":{"ha":903,"x_min":0,"x_max":0,"o":"m 90 944 l 372 944 b 847 472 636 944 847 781 b 372 0 847 164 636 0 l 90 0 m 358 100 b 733 444 589 100 733 239 l 733 500 b 358 844 733 706 589 844 l 201 844 l 201 100 "},"Ð":{"ha":958,"x_min":0,"x_max":0,"o":"m 146 432 l 35 432 l 35 526 l 146 526 l 146 944 l 428 944 b 903 472 692 944 903 781 b 428 0 903 164 692 0 l 146 0 m 414 100 b 789 444 644 100 789 239 l 789 500 b 414 844 789 706 644 844 l 257 844 l 257 526 l 451 526 l 451 432 l 257 432 l 257 100 "},"E":{"ha":781,"x_min":0,"x_max":0,"o":"m 90 944 l 714 944 l 714 844 l 201 844 l 201 536 l 672 536 l 672 436 l 201 436 l 201 100 l 714 100 l 714 0 l 90 0 "},"É":{"ha":781,"x_min":0,"x_max":0,"o":"m 90 944 l 714 944 l 714 844 l 201 844 l 201 536 l 672 536 l 672 436 l 201 436 l 201 100 l 714 100 l 714 0 l 90 0 m 450 1257 l 572 1257 l 454 1049 l 346 1049 "},"Ê":{"ha":781,"x_min":0,"x_max":0,"o":"m 90 944 l 714 944 l 714 844 l 201 844 l 201 536 l 672 536 l 672 436 l 201 436 l 201 100 l 714 100 l 714 0 l 90 0 m 338 1257 l 463 1257 l 603 1049 l 504 1049 l 400 1201 l 296 1049 l 197 1049 "},"Ë":{"ha":781,"x_min":0,"x_max":0,"o":"m 90 944 l 714 944 l 714 844 l 201 844 l 201 536 l 672 536 l 672 436 l 201 436 l 201 100 l 714 100 l 714 0 l 90 0 m 222 1188 l 353 1188 l 353 1065 l 222 1065 m 447 1188 l 578 1188 l 578 1065 l 447 1065 "},"È":{"ha":781,"x_min":0,"x_max":0,"o":"m 90 944 l 714 944 l 714 844 l 201 844 l 201 536 l 672 536 l 672 436 l 201 436 l 201 100 l 714 100 l 714 0 l 90 0 m 350 1257 l 454 1049 l 346 1049 l 228 1257 "},"F":{"ha":753,"x_min":0,"x_max":0,"o":"m 90 944 l 694 944 l 694 844 l 201 844 l 201 522 l 667 522 l 667 422 l 201 422 l 201 0 l 90 0 "},"G":{"ha":968,"x_min":0,"x_max":0,"o":"m 478 -14 b 56 472 233 -14 56 168 b 497 958 56 776 246 958 b 882 653 724 958 857 813 l 768 653 b 497 858 744 764 653 858 b 169 500 307 858 169 717 l 169 444 b 486 86 169 228 294 86 b 781 375 665 86 781 211 l 781 400 l 482 400 l 482 494 l 892 494 l 892 0 l 800 0 l 800 208 b 478 -14 763 74 647 -14 "},"H":{"ha":944,"x_min":0,"x_max":0,"o":"m 90 944 l 201 944 l 201 536 l 743 536 l 743 944 l 854 944 l 854 0 l 743 0 l 743 436 l 201 436 l 201 0 l 90 0 "},"I":{"ha":292,"x_min":0,"x_max":0,"o":"m 90 944 l 201 944 l 201 0 l 90 0 "},"Ĳ":{"ha":972,"x_min":0,"x_max":0,"o":"m 90 944 l 201 944 l 201 0 l 90 0 m 425 292 b 604 86 425 151 490 86 b 778 292 718 86 778 151 l 778 944 l 889 944 l 889 292 b 604 -14 889 111 799 -14 b 319 292 438 -14 319 78 "},"Í":{"ha":292,"x_min":0,"x_max":0,"o":"m 90 944 l 201 944 l 201 0 l 90 0 m 196 1257 l 318 1257 l 200 1049 l 92 1049 "},"Î":{"ha":292,"x_min":0,"x_max":0,"o":"m 90 944 l 201 944 l 201 0 l 90 0 m 83 1257 l 208 1257 l 349 1049 l 250 1049 l 146 1201 l 42 1049 l -57 1049 "},"Ï":{"ha":292,"x_min":0,"x_max":0,"o":"m 90 944 l 201 944 l 201 0 l 90 0 m -32 1188 l 99 1188 l 99 1065 l -32 1065 m 193 1188 l 324 1188 l 324 1065 l 193 1065 "},"Ì":{"ha":292,"x_min":0,"x_max":0,"o":"m 90 944 l 201 944 l 201 0 l 90 0 m 96 1257 l 200 1049 l 92 1049 l -26 1257 "},"J":{"ha":681,"x_min":0,"x_max":0,"o":"m 597 292 b 313 -14 597 111 507 -14 b 28 292 146 -14 28 78 l 133 292 b 313 86 133 151 199 86 b 486 292 426 86 486 151 l 486 944 l 597 944 l 597 292 "},"K":{"ha":781,"x_min":0,"x_max":0,"o":"m 90 944 l 201 944 l 201 493 l 615 944 l 758 944 l 321 479 l 760 0 l 614 0 l 201 465 l 201 0 l 90 0 "},"L":{"ha":701,"x_min":0,"x_max":0,"o":"m 90 944 l 201 944 l 201 100 l 667 100 l 667 0 l 90 0 "},"M":{"ha":1182,"x_min":0,"x_max":0,"o":"m 90 944 l 282 944 l 594 61 l 906 944 l 1092 944 l 1092 0 l 983 0 l 983 690 l 985 860 l 983 860 l 928 700 l 682 0 l 500 0 l 254 700 l 199 860 l 197 860 l 199 690 l 199 0 l 90 0 "},"N":{"ha":958,"x_min":0,"x_max":0,"o":"m 90 944 l 288 944 l 682 207 l 761 57 l 763 57 l 761 226 l 761 944 l 868 944 l 868 0 l 669 0 l 276 738 l 197 888 l 196 888 l 197 718 l 197 0 l 90 0 "},"Ñ":{"ha":958,"x_min":0,"x_max":0,"o":"m 90 944 l 288 944 l 682 207 l 761 57 l 763 57 l 761 226 l 761 944 l 868 944 l 868 0 l 669 0 l 276 738 l 197 888 l 196 888 l 197 718 l 197 0 l 90 0 m 232 1071 b 372 1239 232 1175 282 1239 b 490 1194 422 1239 453 1219 l 515 1178 b 586 1147 546 1157 564 1147 b 644 1235 629 1147 644 1186 l 726 1235 b 586 1067 726 1133 676 1067 b 468 1111 536 1067 506 1086 l 443 1128 b 372 1158 413 1149 394 1158 b 314 1071 329 1158 314 1119 l 232 1071 "},"O":{"ha":978,"x_min":0,"x_max":0,"o":"m 489 -14 b 56 472 233 -14 56 182 b 489 958 56 763 233 958 b 922 472 744 958 922 763 b 489 -14 922 182 744 -14 m 169 444 b 489 86 169 228 301 86 b 808 444 676 86 808 228 l 808 500 b 489 858 808 717 676 858 b 169 500 301 858 169 717 l 169 444 "},"Ó":{"ha":978,"x_min":0,"x_max":0,"o":"m 489 -14 b 56 472 233 -14 56 182 b 489 958 56 763 233 958 b 922 472 744 958 922 763 b 489 -14 922 182 744 -14 m 169 444 b 489 86 169 228 301 86 b 808 444 676 86 808 228 l 808 500 b 489 858 808 717 676 858 b 169 500 301 858 169 717 l 169 444 m 539 1257 l 661 1257 l 543 1049 l 435 1049 "},"Ô":{"ha":978,"x_min":0,"x_max":0,"o":"m 489 -14 b 56 472 233 -14 56 182 b 489 958 56 763 233 958 b 922 472 744 958 922 763 b 489 -14 922 182 744 -14 m 169 444 b 489 86 169 228 301 86 b 808 444 676 86 808 228 l 808 500 b 489 858 808 717 676 858 b 169 500 301 858 169 717 l 169 444 m 426 1257 l 551 1257 l 692 1049 l 593 1049 l 489 1201 l 385 1049 l 286 1049 "},"Ö":{"ha":978,"x_min":0,"x_max":0,"o":"m 489 -14 b 56 472 233 -14 56 182 b 489 958 56 763 233 958 b 922 472 744 958 922 763 b 489 -14 922 182 744 -14 m 169 444 b 489 86 169 228 301 86 b 808 444 676 86 808 228 l 808 500 b 489 858 808 717 676 858 b 169 500 301 858 169 717 l 169 444 m 311 1188 l 442 1188 l 442 1065 l 311 1065 m 536 1188 l 667 1188 l 667 1065 l 536 1065 "},"Ò":{"ha":978,"x_min":0,"x_max":0,"o":"m 489 -14 b 56 472 233 -14 56 182 b 489 958 56 763 233 958 b 922 472 744 958 922 763 b 489 -14 922 182 744 -14 m 169 444 b 489 86 169 228 301 86 b 808 444 676 86 808 228 l 808 500 b 489 858 808 717 676 858 b 169 500 301 858 169 717 l 169 444 m 439 1257 l 543 1049 l 435 1049 l 317 1257 "},"Ø":{"ha":978,"x_min":0,"x_max":0,"o":"m 489 -14 b 228 72 388 -14 299 17 l 172 0 l 56 0 l 163 138 b 56 472 94 221 56 336 b 489 958 56 763 233 958 b 740 879 586 958 672 931 l 792 944 l 908 944 l 808 817 b 922 472 881 732 922 613 b 489 -14 922 182 744 -14 m 169 444 b 229 222 169 357 192 282 l 678 799 b 489 858 626 838 561 858 b 169 500 301 858 169 717 l 169 444 m 292 153 b 489 86 344 110 413 86 b 808 444 676 86 808 228 l 808 500 b 742 732 808 593 785 671 l 292 153 "},"Õ":{"ha":978,"x_min":0,"x_max":0,"o":"m 489 -14 b 56 472 233 -14 56 182 b 489 958 56 763 233 958 b 922 472 744 958 922 763 b 489 -14 922 182 744 -14 m 169 444 b 489 86 169 228 301 86 b 808 444 676 86 808 228 l 808 500 b 489 858 808 717 676 858 b 169 500 301 858 169 717 l 169 444 m 242 1071 b 382 1239 242 1175 292 1239 b 500 1194 432 1239 463 1219 l 525 1178 b 596 1147 556 1157 574 1147 b 654 1235 639 1147 654 1186 l 736 1235 b 596 1067 736 1133 686 1067 b 478 1111 546 1067 515 1086 l 453 1128 b 382 1158 422 1149 404 1158 b 324 1071 339 1158 324 1119 l 242 1071 "},"Œ":{"ha":1471,"x_min":0,"x_max":0,"o":"m 485 -14 b 56 472 243 -14 56 182 b 485 958 56 763 243 958 b 800 792 619 958 729 897 l 800 944 l 1404 944 l 1404 844 l 911 844 l 911 536 l 1363 536 l 1363 436 l 911 436 l 911 100 l 1404 100 l 1404 0 l 800 0 l 800 153 b 485 -14 729 47 619 -14 m 169 444 b 485 89 169 231 300 89 b 800 444 669 89 800 231 l 800 500 b 485 856 800 714 669 856 b 169 500 300 856 169 714 l 169 444 "},"P":{"ha":782,"x_min":0,"x_max":0,"o":"m 90 944 l 424 944 b 739 661 610 944 739 839 b 424 378 739 483 610 378 l 201 378 l 201 0 l 90 0 m 417 478 b 625 654 556 478 625 549 l 625 668 b 417 844 625 774 556 844 l 201 844 l 201 478 "},"Þ":{"ha":782,"x_min":0,"x_max":0,"o":"m 90 944 l 201 944 l 201 769 l 417 769 b 739 486 610 769 739 660 b 417 203 739 313 610 203 l 201 203 l 201 0 l 90 0 m 417 303 b 625 479 556 303 625 374 l 625 493 b 417 669 625 599 556 669 l 201 669 l 201 303 "},"Q":{"ha":978,"x_min":0,"x_max":0,"o":"m 472 -14 b 56 472 225 -6 56 189 b 489 958 56 763 233 958 b 922 472 744 958 922 763 b 494 -14 922 183 747 -11 l 875 -61 l 875 -162 l 472 -110 m 169 444 b 489 86 169 228 301 86 b 808 444 676 86 808 228 l 808 500 b 489 858 808 717 676 858 b 169 500 301 858 169 717 l 169 444 "},"R":{"ha":790,"x_min":0,"x_max":0,"o":"m 90 944 l 432 944 b 739 668 611 944 739 842 b 450 394 739 500 619 401 l 757 0 l 619 0 l 325 394 l 201 394 l 201 0 l 90 0 m 425 492 b 625 661 550 492 625 556 l 625 675 b 425 844 625 781 550 844 l 201 844 l 201 492 "},"S":{"ha":818,"x_min":0,"x_max":0,"o":"m 314 442 b 78 692 194 471 78 536 b 406 958 78 851 204 958 b 751 653 640 958 742 811 l 642 653 b 401 860 638 767 565 860 b 189 700 269 860 189 800 b 351 547 189 607 258 571 l 508 508 b 744 253 628 479 744 408 b 414 -14 744 93 618 -14 b 64 292 179 -14 75 133 l 174 292 b 418 85 179 178 254 85 b 633 246 553 85 633 144 b 471 403 633 338 567 379 l 314 442 "},"Š":{"ha":801,"x_min":0,"x_max":0,"o":"m 314 442 b 78 692 194 471 78 536 b 406 958 78 851 204 958 b 751 653 640 958 742 811 l 642 653 b 401 860 638 767 565 860 b 189 700 269 860 189 800 b 351 547 189 607 258 571 l 508 508 b 744 253 628 479 744 408 b 414 -14 744 93 618 -14 b 64 292 179 -14 75 133 l 174 292 b 418 85 179 178 254 85 b 633 246 553 85 633 144 b 471 403 633 338 567 379 l 314 442 m 307 1257 l 411 1104 l 515 1257 l 614 1257 l 474 1049 l 349 1049 l 208 1257 "},"ẞ":{"ha":864,"x_min":0,"x_max":0,"o":"m 90 944 l 772 944 l 772 867 l 500 554 b 804 285 689 547 804 444 b 468 0 804 111 672 0 l 278 0 l 278 103 l 464 103 b 690 285 600 103 690 164 b 468 467 690 403 604 467 l 356 467 l 356 528 l 624 844 l 201 844 l 201 0 l 90 0 "},"T":{"ha":800,"x_min":0,"x_max":0,"o":"m 344 844 l 35 844 l 35 944 l 765 944 l 765 844 l 456 844 l 456 0 l 344 0 "},"U":{"ha":903,"x_min":0,"x_max":0,"o":"m 451 -14 b 83 368 235 -14 83 115 l 83 944 l 194 944 l 194 375 b 451 86 194 189 282 86 b 708 375 621 86 708 189 l 708 944 l 819 944 l 819 368 b 451 -14 819 115 668 -14 "},"Ú":{"ha":903,"x_min":0,"x_max":0,"o":"m 451 -14 b 83 368 235 -14 83 115 l 83 944 l 194 944 l 194 375 b 451 86 194 189 282 86 b 708 375 621 86 708 189 l 708 944 l 819 944 l 819 368 b 451 -14 819 115 668 -14 m 501 1257 l 624 1257 l 506 1049 l 397 1049 "},"Û":{"ha":903,"x_min":0,"x_max":0,"o":"m 451 -14 b 83 368 235 -14 83 115 l 83 944 l 194 944 l 194 375 b 451 86 194 189 282 86 b 708 375 621 86 708 189 l 708 944 l 819 944 l 819 368 b 451 -14 819 115 668 -14 m 389 1257 l 514 1257 l 654 1049 l 556 1049 l 451 1201 l 347 1049 l 249 1049 "},"Ü":{"ha":903,"x_min":0,"x_max":0,"o":"m 451 -14 b 83 368 235 -14 83 115 l 83 944 l 194 944 l 194 375 b 451 86 194 189 282 86 b 708 375 621 86 708 189 l 708 944 l 819 944 l 819 368 b 451 -14 819 115 668 -14 m 274 1188 l 404 1188 l 404 1065 l 274 1065 m 499 1188 l 629 1188 l 629 1065 l 499 1065 "},"Ù":{"ha":903,"x_min":0,"x_max":0,"o":"m 451 -14 b 83 368 235 -14 83 115 l 83 944 l 194 944 l 194 375 b 451 86 194 189 282 86 b 708 375 621 86 708 189 l 708 944 l 819 944 l 819 368 b 451 -14 819 115 668 -14 m 401 1257 l 506 1049 l 397 1049 l 279 1257 "},"V":{"ha":904,"x_min":0,"x_max":0,"o":"m 28 944 l 146 944 l 400 217 l 453 57 l 456 57 l 508 217 l 758 944 l 876 944 l 544 0 l 361 0 "},"W":{"ha":1340,"x_min":0,"x_max":0,"o":"m 931 233 l 968 68 l 971 68 l 1013 232 l 1201 944 l 1313 944 l 1056 0 l 875 0 l 707 694 l 669 860 l 667 860 l 629 694 l 465 0 l 285 0 l 28 944 l 142 944 l 335 229 l 376 65 l 379 65 l 417 231 l 586 944 l 758 944 "},"Ẃ":{"ha":1340,"x_min":0,"x_max":0,"o":"m 931 233 l 968 68 l 971 68 l 1013 232 l 1201 944 l 1313 944 l 1056 0 l 875 0 l 707 694 l 669 860 l 667 860 l 629 694 l 465 0 l 285 0 l 28 944 l 142 944 l 335 229 l 376 65 l 379 65 l 417 231 l 586 944 l 758 944 m 721 1257 l 843 1257 l 725 1049 l 617 1049 "},"Ŵ":{"ha":1340,"x_min":0,"x_max":0,"o":"m 931 233 l 968 68 l 971 68 l 1013 232 l 1201 944 l 1313 944 l 1056 0 l 875 0 l 707 694 l 669 860 l 667 860 l 629 694 l 465 0 l 285 0 l 28 944 l 142 944 l 335 229 l 376 65 l 379 65 l 417 231 l 586 944 l 758 944 m 608 1257 l 733 1257 l 874 1049 l 775 1049 l 671 1201 l 567 1049 l 468 1049 "},"Ẅ":{"ha":1340,"x_min":0,"x_max":0,"o":"m 931 233 l 968 68 l 971 68 l 1013 232 l 1201 944 l 1313 944 l 1056 0 l 875 0 l 707 694 l 669 860 l 667 860 l 629 694 l 465 0 l 285 0 l 28 944 l 142 944 l 335 229 l 376 65 l 379 65 l 417 231 l 586 944 l 758 944 m 493 1188 l 624 1188 l 624 1065 l 493 1065 m 718 1188 l 849 1188 l 849 1065 l 718 1065 "},"Ẁ":{"ha":1340,"x_min":0,"x_max":0,"o":"m 931 233 l 968 68 l 971 68 l 1013 232 l 1201 944 l 1313 944 l 1056 0 l 875 0 l 707 694 l 669 860 l 667 860 l 629 694 l 465 0 l 285 0 l 28 944 l 142 944 l 335 229 l 376 65 l 379 65 l 417 231 l 586 944 l 758 944 m 621 1257 l 725 1049 l 617 1049 l 499 1257 "},"X":{"ha":822,"x_min":0,"x_max":0,"o":"m 28 944 l 154 944 l 322 681 l 411 538 l 414 538 l 501 681 l 669 944 l 793 944 l 489 472 l 794 0 l 668 0 l 500 264 l 413 407 l 410 407 l 321 264 l 153 0 l 29 0 l 333 472 "},"Y":{"ha":793,"x_min":0,"x_max":0,"o":"m 28 944 l 150 944 l 324 603 l 397 451 l 400 451 l 474 603 l 646 944 l 765 944 l 492 417 l 453 417 l 453 0 l 342 0 l 342 417 l 303 417 "},"Ý":{"ha":793,"x_min":0,"x_max":0,"o":"m 28 944 l 150 944 l 324 603 l 397 451 l 400 451 l 474 603 l 646 944 l 765 944 l 492 417 l 453 417 l 453 0 l 342 0 l 342 417 l 303 417 m 447 1257 l 569 1257 l 451 1049 l 343 1049 "},"Ŷ":{"ha":793,"x_min":0,"x_max":0,"o":"m 28 944 l 150 944 l 324 603 l 397 451 l 400 451 l 474 603 l 646 944 l 765 944 l 492 417 l 453 417 l 453 0 l 342 0 l 342 417 l 303 417 m 335 1257 l 460 1257 l 600 1049 l 501 1049 l 397 1201 l 293 1049 l 194 1049 "},"Ÿ":{"ha":793,"x_min":0,"x_max":0,"o":"m 28 944 l 150 944 l 324 603 l 397 451 l 400 451 l 474 603 l 646 944 l 765 944 l 492 417 l 453 417 l 453 0 l 342 0 l 342 417 l 303 417 m 219 1188 l 350 1188 l 350 1065 l 219 1065 m 444 1188 l 575 1188 l 575 1065 l 444 1065 "},"Ỳ":{"ha":793,"x_min":0,"x_max":0,"o":"m 28 944 l 150 944 l 324 603 l 397 451 l 400 451 l 474 603 l 646 944 l 765 944 l 492 417 l 453 417 l 453 0 l 342 0 l 342 417 l 303 417 m 347 1257 l 451 1049 l 343 1049 l 225 1257 "},"Z":{"ha":778,"x_min":0,"x_max":0,"o":"m 69 118 l 575 843 l 69 843 l 69 944 l 694 944 l 694 826 l 189 101 l 708 101 l 708 0 l 69 0 "},"Ž":{"ha":778,"x_min":0,"x_max":0,"o":"m 69 118 l 575 843 l 69 843 l 69 944 l 694 944 l 694 826 l 189 101 l 708 101 l 708 0 l 69 0 m 306 1257 l 410 1104 l 514 1257 l 613 1257 l 472 1049 l 347 1049 l 207 1257 "},"a":{"ha":694,"x_min":0,"x_max":0,"o":"m 279 -14 b 67 168 144 -14 67 64 b 272 376 67 285 164 350 l 503 432 l 503 454 b 347 614 503 572 443 614 b 181 461 242 614 185 564 l 69 461 b 353 708 76 622 197 708 b 614 443 522 708 614 604 l 614 0 l 503 0 l 503 117 b 279 -14 450 33 382 -14 m 178 179 b 307 74 178 107 231 74 b 503 261 414 74 503 140 l 503 346 l 300 297 b 178 179 218 278 178 243 "},"á":{"ha":694,"x_min":0,"x_max":0,"o":"m 279 -14 b 67 168 144 -14 67 64 b 272 376 67 285 164 350 l 503 432 l 503 454 b 347 614 503 572 443 614 b 181 461 242 614 185 564 l 69 461 b 353 708 76 622 197 708 b 614 443 522 708 614 604 l 614 0 l 503 0 l 503 117 b 279 -14 450 33 382 -14 m 178 179 b 307 74 178 107 231 74 b 503 261 414 74 503 140 l 503 346 l 300 297 b 178 179 218 278 178 243 m 400 1007 l 522 1007 l 404 799 l 296 799 "},"â":{"ha":694,"x_min":0,"x_max":0,"o":"m 279 -14 b 67 168 144 -14 67 64 b 272 376 67 285 164 350 l 503 432 l 503 454 b 347 614 503 572 443 614 b 181 461 242 614 185 564 l 69 461 b 353 708 76 622 197 708 b 614 443 522 708 614 604 l 614 0 l 503 0 l 503 117 b 279 -14 450 33 382 -14 m 288 1007 l 413 1007 l 553 799 l 454 799 l 350 951 l 246 799 l 147 799 m 178 179 b 307 74 178 107 231 74 b 503 261 414 74 503 140 l 503 346 l 300 297 b 178 179 218 278 178 243 "},"ä":{"ha":694,"x_min":0,"x_max":0,"o":"m 279 -14 b 67 168 144 -14 67 64 b 272 376 67 285 164 350 l 503 432 l 503 454 b 347 614 503 572 443 614 b 181 461 242 614 185 564 l 69 461 b 353 708 76 622 197 708 b 614 443 522 708 614 604 l 614 0 l 503 0 l 503 117 b 279 -14 450 33 382 -14 m 172 938 l 303 938 l 303 815 l 172 815 m 178 179 b 307 74 178 107 231 74 b 503 261 414 74 503 140 l 503 346 l 300 297 b 178 179 218 278 178 243 m 397 938 l 528 938 l 528 815 l 397 815 "},"à":{"ha":694,"x_min":0,"x_max":0,"o":"m 279 -14 b 67 168 144 -14 67 64 b 272 376 67 285 164 350 l 503 432 l 503 454 b 347 614 503 572 443 614 b 181 461 242 614 185 564 l 69 461 b 353 708 76 622 197 708 b 614 443 522 708 614 604 l 614 0 l 503 0 l 503 117 b 279 -14 450 33 382 -14 m 178 179 b 307 74 178 107 231 74 b 503 261 414 74 503 140 l 503 346 l 300 297 b 178 179 218 278 178 243 m 300 1007 l 404 799 l 296 799 l 178 1007 "},"å":{"ha":694,"x_min":0,"x_max":0,"o":"m 279 -14 b 67 168 144 -14 67 64 b 272 376 67 285 164 350 l 503 432 l 503 454 b 347 614 503 572 443 614 b 181 461 242 614 185 564 l 69 461 b 353 708 76 622 197 708 b 614 443 522 708 614 604 l 614 0 l 503 0 l 503 117 b 279 -14 450 33 382 -14 m 178 179 b 307 74 178 107 231 74 b 503 261 414 74 503 140 l 503 346 l 300 297 b 178 179 218 278 178 243 m 206 929 b 350 1067 206 1008 268 1067 b 494 929 432 1067 494 1008 b 350 792 494 850 432 792 b 206 929 268 792 206 850 m 283 929 b 350 861 283 889 310 861 b 417 929 390 861 417 889 b 350 997 417 969 390 997 b 283 929 310 997 283 969 "},"ã":{"ha":694,"x_min":0,"x_max":0,"o":"m 279 -14 b 67 168 144 -14 67 64 b 272 376 67 285 164 350 l 503 432 l 503 454 b 347 614 503 572 443 614 b 181 461 242 614 185 564 l 69 461 b 353 708 76 622 197 708 b 614 443 522 708 614 604 l 614 0 l 503 0 l 503 117 b 279 -14 450 33 382 -14 m 103 821 b 243 989 103 925 153 989 b 361 944 293 989 324 969 l 386 928 b 457 897 417 907 435 897 b 515 985 500 897 515 936 l 597 985 b 457 817 597 883 547 817 b 339 861 407 817 376 836 l 314 878 b 243 908 283 899 265 908 b 185 821 200 908 185 869 l 103 821 m 178 179 b 307 74 178 107 231 74 b 503 261 414 74 503 140 l 503 346 l 300 297 b 178 179 218 278 178 243 "},"æ":{"ha":1199,"x_min":0,"x_max":0,"o":"m 835 -14 b 553 150 708 -14 608 49 b 296 -14 514 36 417 -14 b 63 174 144 -14 63 67 b 268 375 63 288 156 360 l 499 407 l 499 454 b 343 614 499 572 439 614 b 179 461 238 614 182 564 l 65 461 b 343 708 72 622 197 708 b 574 576 456 708 535 658 b 832 708 631 660 722 708 b 1144 347 1011 708 1144 579 l 1144 311 l 613 311 b 835 83 615 164 708 83 b 1018 208 942 83 1000 140 l 1132 208 b 835 -14 1103 79 989 -14 m 174 182 b 303 74 174 110 226 74 b 499 261 410 74 499 140 l 499 321 l 296 296 b 174 182 211 286 174 246 m 1032 403 b 828 611 1032 535 946 611 b 613 403 711 611 622 536 "},"b":{"ha":786,"x_min":0,"x_max":0,"o":"m 431 -14 b 196 128 325 -14 250 35 l 196 0 l 85 0 l 85 1000 l 196 1000 l 196 567 b 431 708 250 660 325 708 b 733 347 607 708 733 574 b 431 -14 733 121 607 -14 m 196 313 b 407 82 196 174 272 82 b 621 326 536 82 621 165 l 621 368 b 407 613 621 529 536 613 b 196 382 272 613 196 521 l 196 313 "},"c":{"ha":728,"x_min":0,"x_max":0,"o":"m 383 -14 b 53 347 192 -14 53 125 b 383 708 53 569 192 708 b 681 458 564 708 664 583 l 569 458 b 383 611 554 553 486 611 b 165 368 258 611 165 528 l 165 326 b 383 83 165 167 258 83 b 569 236 486 83 554 142 l 681 236 b 383 -14 664 111 564 -14 "},"ç":{"ha":728,"x_min":0,"x_max":0,"o":"m 53 347 b 383 708 53 569 192 708 b 681 458 564 708 664 583 l 569 458 b 383 611 554 553 486 611 b 165 368 258 611 165 528 l 165 326 b 383 83 165 167 258 83 b 569 236 486 83 554 142 l 681 236 b 389 -14 664 113 567 -11 l 365 -53 b 511 -171 450 -56 511 -87 b 351 -292 511 -258 443 -292 l 282 -292 l 282 -210 l 360 -210 b 422 -162 390 -210 422 -200 b 360 -117 422 -125 390 -117 l 282 -117 l 282 -53 l 308 -7 b 53 347 157 25 53 156 "},"d":{"ha":786,"x_min":0,"x_max":0,"o":"m 356 -14 b 53 347 179 -14 53 121 b 356 708 53 574 179 708 b 590 567 461 708 536 660 l 590 1000 l 701 1000 l 701 0 l 590 0 l 590 128 b 356 -14 536 35 461 -14 m 165 326 b 379 82 165 165 250 82 b 590 313 514 82 590 174 l 590 382 b 379 613 590 521 514 613 b 165 368 250 613 165 529 l 165 326 "},"ð":{"ha":743,"x_min":0,"x_max":0,"o":"m 375 -14 b 53 340 175 -14 53 135 b 344 681 53 542 181 681 b 569 549 444 681 526 628 b 414 814 546 635 489 728 l 171 719 l 171 810 l 353 881 b 188 1014 301 929 246 975 l 363 1014 b 460 922 397 986 429 956 l 658 1000 l 658 910 l 517 854 b 690 361 622 715 690 542 l 690 333 b 375 -14 690 96 550 -14 m 167 338 b 375 89 167 175 253 89 b 576 338 524 89 576 215 b 365 578 576 485 497 578 b 167 338 236 578 167 488 "},"e":{"ha":743,"x_min":0,"x_max":0,"o":"m 389 -14 b 53 347 185 -14 53 135 b 386 708 53 560 186 708 b 699 347 572 708 699 579 l 699 311 l 167 311 b 389 83 169 164 263 83 b 572 208 496 83 554 140 l 686 208 b 389 -14 657 79 550 -14 m 586 403 b 382 611 586 535 500 611 b 167 403 265 611 176 536 "},"é":{"ha":743,"x_min":0,"x_max":0,"o":"m 389 -14 b 53 347 185 -14 53 135 b 386 708 53 560 186 708 b 699 347 572 708 699 579 l 699 311 l 167 311 b 389 83 169 164 263 83 b 572 208 496 83 554 140 l 686 208 b 389 -14 657 79 550 -14 m 586 403 b 382 611 586 535 500 611 b 167 403 265 611 176 536 m 436 1007 l 558 1007 l 440 799 l 332 799 "},"ê":{"ha":743,"x_min":0,"x_max":0,"o":"m 389 -14 b 53 347 185 -14 53 135 b 386 708 53 560 186 708 b 699 347 572 708 699 579 l 699 311 l 167 311 b 389 83 169 164 263 83 b 572 208 496 83 554 140 l 686 208 b 389 -14 657 79 550 -14 m 586 403 b 382 611 586 535 500 611 b 167 403 265 611 176 536 m 324 1007 l 449 1007 l 589 799 l 490 799 l 386 951 l 282 799 l 183 799 "},"ë":{"ha":743,"x_min":0,"x_max":0,"o":"m 389 -14 b 53 347 185 -14 53 135 b 386 708 53 560 186 708 b 699 347 572 708 699 579 l 699 311 l 167 311 b 389 83 169 164 263 83 b 572 208 496 83 554 140 l 686 208 b 389 -14 657 79 550 -14 m 586 403 b 382 611 586 535 500 611 b 167 403 265 611 176 536 m 208 938 l 339 938 l 339 815 l 208 815 m 433 938 l 564 938 l 564 815 l 433 815 "},"è":{"ha":743,"x_min":0,"x_max":0,"o":"m 389 -14 b 53 347 185 -14 53 135 b 386 708 53 560 186 708 b 699 347 572 708 699 579 l 699 311 l 167 311 b 389 83 169 164 263 83 b 572 208 496 83 554 140 l 686 208 b 389 -14 657 79 550 -14 m 586 403 b 382 611 586 535 500 611 b 167 403 265 611 176 536 m 336 1007 l 440 799 l 332 799 l 214 1007 "},"f":{"ha":381,"x_min":0,"x_max":0,"o":"m 115 831 b 282 1000 115 935 168 1000 l 374 1000 l 374 900 l 288 900 b 226 836 243 900 226 886 l 226 694 l 360 694 l 360 597 l 226 597 l 226 0 l 115 0 l 115 597 l 14 597 l 14 694 l 115 694 l 115 831 "},"g":{"ha":786,"x_min":0,"x_max":0,"o":"m 382 -286 b 74 -53 203 -286 85 -197 l 182 -53 b 383 -192 190 -137 263 -192 b 590 14 513 -192 590 -131 l 590 140 b 358 0 536 49 461 0 b 53 354 181 0 53 135 b 358 708 53 574 181 708 b 590 568 461 708 536 660 l 590 694 l 701 694 l 701 14 b 382 -286 701 -175 583 -286 m 165 333 b 379 97 165 181 250 97 b 590 326 514 97 590 189 l 590 382 b 379 611 590 519 514 611 b 165 375 250 611 165 528 l 165 333 "},"h":{"ha":738,"x_min":0,"x_max":0,"o":"m 85 1000 l 196 1000 l 196 576 b 418 708 244 653 315 708 b 657 440 557 708 657 608 l 657 0 l 546 0 l 546 436 b 382 611 546 551 483 611 b 196 401 278 611 196 549 l 196 0 l 85 0 "},"i":{"ha":281,"x_min":0,"x_max":0,"o":"m 85 694 l 196 694 l 196 0 l 85 0 m 201 838 l 201 965 l 79 965 l 79 838 "},"í":{"ha":281,"x_min":0,"x_max":0,"o":"m 85 694 l 196 694 l 196 0 l 85 0 m 190 1007 l 313 1007 l 194 799 l 86 799 "},"î":{"ha":281,"x_min":0,"x_max":0,"o":"m 85 694 l 196 694 l 196 0 l 85 0 m 78 1007 l 203 1007 l 343 799 l 244 799 l 140 951 l 36 799 l -62 799 "},"ï":{"ha":281,"x_min":0,"x_max":0,"o":"m 85 694 l 196 694 l 196 0 l 85 0 m -37 938 l 93 938 l 93 815 l -37 815 m 188 938 l 318 938 l 318 815 l 188 815 "},"ì":{"ha":281,"x_min":0,"x_max":0,"o":"m 85 694 l 196 694 l 196 0 l 85 0 m 90 1007 l 194 799 l 86 799 l -32 1007 "},"ĳ":{"ha":568,"x_min":0,"x_max":0,"o":"m 85 694 l 196 694 l 196 0 l 85 0 m 201 838 l 201 965 l 79 965 l 79 838 m 274 -178 l 365 -178 l 365 694 l 476 694 l 476 -278 l 274 -278 m 489 838 l 489 965 l 367 965 l 367 838 "},"j":{"ha":288,"x_min":0,"x_max":0,"o":"m -7 -178 l 85 -178 l 85 694 l 196 694 l 196 -278 l -7 -278 m 208 838 l 208 965 l 86 965 l 86 838 "},"ȷ":{"ha":281,"x_min":0,"x_max":0,"o":"m -7 -178 l 85 -178 l 85 694 l 196 694 l 196 -278 l -7 -278 "},"k":{"ha":656,"x_min":0,"x_max":0,"o":"m 196 347 l 196 0 l 85 0 l 85 1000 l 196 1000 l 196 372 l 488 694 l 633 694 l 321 360 l 640 0 l 489 0 "},"l":{"ha":306,"x_min":0,"x_max":0,"o":"m 85 1000 l 196 1000 l 196 97 l 265 97 l 265 0 l 85 0 "},"m":{"ha":1188,"x_min":0,"x_max":0,"o":"m 85 694 l 196 694 l 196 576 b 418 708 244 653 315 708 b 635 553 522 708 601 651 b 874 708 681 642 760 708 b 1107 440 1013 708 1107 608 l 1107 0 l 996 0 l 996 436 b 838 611 996 551 939 611 b 651 401 733 611 651 549 l 651 0 l 540 0 l 540 436 b 382 611 540 551 483 611 b 196 401 278 611 196 549 l 196 0 l 85 0 "},"n":{"ha":738,"x_min":0,"x_max":0,"o":"m 85 694 l 196 694 l 196 576 b 418 708 244 653 315 708 b 657 440 557 708 657 608 l 657 0 l 546 0 l 546 436 b 382 611 546 551 483 611 b 196 401 278 611 196 549 l 196 0 l 85 0 "},"ñ":{"ha":738,"x_min":0,"x_max":0,"o":"m 85 694 l 196 694 l 196 576 b 418 708 244 653 315 708 b 657 440 557 708 657 608 l 657 0 l 546 0 l 546 436 b 382 611 546 551 483 611 b 196 401 278 611 196 549 l 196 0 l 85 0 m 122 821 b 263 989 122 925 172 989 b 381 944 313 989 343 969 l 406 928 b 476 897 436 907 454 897 b 535 985 519 897 535 936 l 617 985 b 476 817 617 883 567 817 b 358 861 426 817 396 836 l 333 878 b 263 908 303 899 285 908 b 204 821 219 908 204 869 l 122 821 "},"o":{"ha":761,"x_min":0,"x_max":0,"o":"m 381 -14 b 53 347 185 -14 53 135 b 381 708 53 560 185 708 b 708 347 576 708 708 560 b 381 -14 708 135 576 -14 m 165 326 b 381 83 165 167 258 83 b 596 326 503 83 596 167 l 596 368 b 381 611 596 528 503 611 b 165 368 258 611 165 528 l 165 326 "},"ó":{"ha":761,"x_min":0,"x_max":0,"o":"m 381 -14 b 53 347 185 -14 53 135 b 381 708 53 560 185 708 b 708 347 576 708 708 560 b 381 -14 708 135 576 -14 m 165 326 b 381 83 165 167 258 83 b 596 326 503 83 596 167 l 596 368 b 381 611 596 528 503 611 b 165 368 258 611 165 528 l 165 326 m 431 1007 l 553 1007 l 435 799 l 326 799 "},"ô":{"ha":761,"x_min":0,"x_max":0,"o":"m 381 -14 b 53 347 185 -14 53 135 b 381 708 53 560 185 708 b 708 347 576 708 708 560 b 381 -14 708 135 576 -14 m 165 326 b 381 83 165 167 258 83 b 596 326 503 83 596 167 l 596 368 b 381 611 596 528 503 611 b 165 368 258 611 165 528 l 165 326 m 318 1007 l 443 1007 l 583 799 l 485 799 l 381 951 l 276 799 l 178 799 "},"ö":{"ha":761,"x_min":0,"x_max":0,"o":"m 381 -14 b 53 347 185 -14 53 135 b 381 708 53 560 185 708 b 708 347 576 708 708 560 b 381 -14 708 135 576 -14 m 165 326 b 381 83 165 167 258 83 b 596 326 503 83 596 167 l 596 368 b 381 611 596 528 503 611 b 165 368 258 611 165 528 l 165 326 m 203 938 l 333 938 l 333 815 l 203 815 m 428 938 l 558 938 l 558 815 l 428 815 "},"ò":{"ha":761,"x_min":0,"x_max":0,"o":"m 381 -14 b 53 347 185 -14 53 135 b 381 708 53 560 185 708 b 708 347 576 708 708 560 b 381 -14 708 135 576 -14 m 165 326 b 381 83 165 167 258 83 b 596 326 503 83 596 167 l 596 368 b 381 611 596 528 503 611 b 165 368 258 611 165 528 l 165 326 m 331 1007 l 435 799 l 326 799 l 208 1007 "},"ø":{"ha":761,"x_min":0,"x_max":0,"o":"m 381 -14 b 190 44 307 -14 243 7 l 111 -56 l 6 -56 l 131 101 b 53 347 81 164 53 249 b 381 708 53 560 185 708 b 571 650 454 708 518 688 l 650 750 l 756 750 l 631 593 b 708 347 681 531 708 446 b 381 -14 708 135 576 -14 m 165 326 b 199 185 165 269 178 222 l 508 572 b 381 611 472 599 429 611 b 165 368 258 611 165 528 l 165 326 m 253 122 b 381 83 289 96 332 83 b 596 326 503 83 596 167 l 596 368 b 563 510 596 425 583 472 l 253 122 "},"õ":{"ha":761,"x_min":0,"x_max":0,"o":"m 381 -14 b 53 347 185 -14 53 135 b 381 708 53 560 185 708 b 708 347 576 708 708 560 b 381 -14 708 135 576 -14 m 133 821 b 274 989 133 925 183 989 b 392 944 324 989 354 969 l 417 928 b 488 897 447 907 465 897 b 546 985 531 897 546 936 l 628 985 b 488 817 628 883 578 817 b 369 861 438 817 407 836 l 344 878 b 274 908 314 899 296 908 b 215 821 231 908 215 869 l 133 821 m 165 326 b 381 83 165 167 258 83 b 596 326 503 83 596 167 l 596 368 b 381 611 596 528 503 611 b 165 368 258 611 165 528 l 165 326 "},"œ":{"ha":1294,"x_min":0,"x_max":0,"o":"m 382 -14 b 53 347 194 -14 53 135 b 382 708 53 560 194 708 b 653 544 504 708 600 646 b 928 708 706 646 803 708 b 1240 347 1107 708 1240 579 l 1240 311 l 708 311 b 931 83 711 164 804 83 b 1114 208 1038 83 1096 140 l 1228 208 b 931 -14 1199 79 1085 -14 b 653 150 804 -14 706 49 b 382 -14 600 49 504 -14 m 167 326 b 382 83 167 167 260 83 b 597 326 504 83 597 167 l 597 368 b 382 611 597 528 504 611 b 167 368 260 611 167 528 l 167 326 m 1128 403 b 924 611 1128 535 1042 611 b 708 403 807 611 718 536 "},"p":{"ha":786,"x_min":0,"x_max":0,"o":"m 85 694 l 196 694 l 196 567 b 431 708 250 660 325 708 b 733 347 607 708 733 574 b 431 -14 733 121 607 -14 b 196 128 325 -14 250 35 l 196 -278 l 85 -278 m 196 313 b 407 82 196 174 272 82 b 621 326 536 82 621 165 l 621 368 b 407 613 621 529 536 613 b 196 382 272 613 196 521 l 196 313 "},"þ":{"ha":788,"x_min":0,"x_max":0,"o":"m 85 1000 l 196 1000 l 196 563 b 428 708 253 658 322 708 b 735 347 599 708 735 574 b 428 -14 735 121 599 -14 b 196 132 322 -14 253 36 l 196 -278 l 85 -278 m 196 313 b 407 83 196 175 272 83 b 621 326 536 83 621 167 l 621 368 b 407 611 621 528 536 611 b 196 382 272 611 196 519 l 196 313 "},"q":{"ha":786,"x_min":0,"x_max":0,"o":"m 590 -278 l 590 128 b 356 -14 536 35 461 -14 b 53 347 179 -14 53 121 b 356 708 53 574 179 708 b 590 567 461 708 536 660 l 590 694 l 701 694 l 701 -278 m 165 326 b 379 82 165 165 250 82 b 590 313 514 82 590 174 l 590 382 b 379 613 590 521 514 613 b 165 368 250 613 165 529 l 165 326 "},"r":{"ha":440,"x_min":0,"x_max":0,"o":"m 85 694 l 196 694 l 196 589 b 389 701 238 675 307 701 l 413 701 l 413 593 l 333 593 b 196 447 240 593 196 543 l 196 0 l 85 0 "},"s":{"ha":669,"x_min":0,"x_max":0,"o":"m 267 313 b 75 503 160 340 75 392 b 335 708 75 629 183 708 b 604 472 513 708 601 594 l 497 472 b 331 615 493 556 439 615 b 183 514 244 615 183 581 b 292 414 183 458 228 429 l 410 385 b 603 192 518 358 603 306 b 340 -14 603 61 492 -14 b 61 222 157 -14 65 100 l 168 222 b 343 79 172 139 235 79 b 494 183 432 79 494 115 b 386 282 494 238 451 265 l 267 313 "},"š":{"ha":669,"x_min":0,"x_max":0,"o":"m 267 313 b 75 503 160 340 75 392 b 335 708 75 629 183 708 b 604 472 513 708 601 594 l 497 472 b 331 615 493 556 439 615 b 183 514 244 615 183 581 b 292 414 183 458 228 429 l 410 385 b 603 192 518 358 603 306 b 340 -14 603 61 492 -14 b 61 222 157 -14 65 100 l 168 222 b 343 79 172 139 235 79 b 494 183 432 79 494 115 b 386 282 494 238 451 265 l 267 313 m 235 1007 l 339 854 l 443 1007 l 542 1007 l 401 799 l 276 799 l 136 1007 "},"ß":{"ha":765,"x_min":0,"x_max":0,"o":"m 85 660 b 376 1007 85 867 175 1007 b 664 744 550 1007 664 904 b 501 522 664 628 603 553 b 706 274 628 494 706 417 b 383 0 706 93 576 0 l 300 0 l 300 100 l 383 100 b 592 285 519 100 592 174 b 383 474 592 399 519 474 l 314 474 l 314 568 l 383 568 b 550 736 490 568 550 633 b 374 907 550 836 493 907 b 196 660 224 907 196 797 l 196 0 l 85 0 l 85 660 "},"t":{"ha":422,"x_min":0,"x_max":0,"o":"m 290 0 b 122 158 167 0 122 49 l 122 597 l 21 597 l 21 694 l 122 694 l 122 875 l 233 889 l 233 694 l 381 694 l 381 597 l 233 597 l 233 161 b 294 97 233 110 249 97 l 381 97 l 381 0 l 290 0 "},"u":{"ha":733,"x_min":0,"x_max":0,"o":"m 311 -14 b 81 254 172 -14 81 86 l 81 694 l 192 694 l 192 258 b 347 83 192 143 246 83 b 538 293 451 83 538 146 l 538 694 l 649 694 l 649 0 l 538 0 l 538 118 b 311 -14 488 42 415 -14 "},"ú":{"ha":733,"x_min":0,"x_max":0,"o":"m 311 -14 b 81 254 172 -14 81 86 l 81 694 l 192 694 l 192 258 b 347 83 192 143 246 83 b 538 293 451 83 538 146 l 538 694 l 649 694 l 649 0 l 538 0 l 538 118 b 311 -14 488 42 415 -14 m 417 1007 l 539 1007 l 421 799 l 313 799 "},"û":{"ha":733,"x_min":0,"x_max":0,"o":"m 311 -14 b 81 254 172 -14 81 86 l 81 694 l 192 694 l 192 258 b 347 83 192 143 246 83 b 538 293 451 83 538 146 l 538 694 l 649 694 l 649 0 l 538 0 l 538 118 b 311 -14 488 42 415 -14 m 304 1007 l 429 1007 l 569 799 l 471 799 l 367 951 l 263 799 l 164 799 "},"ü":{"ha":733,"x_min":0,"x_max":0,"o":"m 311 -14 b 81 254 172 -14 81 86 l 81 694 l 192 694 l 192 258 b 347 83 192 143 246 83 b 538 293 451 83 538 146 l 538 694 l 649 694 l 649 0 l 538 0 l 538 118 b 311 -14 488 42 415 -14 m 189 938 l 319 938 l 319 815 l 189 815 m 414 938 l 544 938 l 544 815 l 414 815 "},"ù":{"ha":733,"x_min":0,"x_max":0,"o":"m 311 -14 b 81 254 172 -14 81 86 l 81 694 l 192 694 l 192 258 b 347 83 192 143 246 83 b 538 293 451 83 538 146 l 538 694 l 649 694 l 649 0 l 538 0 l 538 118 b 311 -14 488 42 415 -14 m 317 1007 l 421 799 l 313 799 l 194 1007 "},"v":{"ha":689,"x_min":0,"x_max":0,"o":"m 14 694 l 132 694 l 294 201 l 344 40 l 347 40 l 397 201 l 557 694 l 675 694 l 439 0 l 249 0 "},"w":{"ha":1096,"x_min":0,"x_max":0,"o":"m 753 215 l 790 50 l 793 50 l 836 214 l 969 694 l 1082 694 l 882 0 l 696 0 l 586 458 l 549 624 l 546 624 l 508 458 l 400 0 l 214 0 l 14 694 l 128 694 l 263 215 l 306 51 l 308 51 l 346 217 l 460 694 l 636 694 "},"ẃ":{"ha":1096,"x_min":0,"x_max":0,"o":"m 753 215 l 790 50 l 793 50 l 836 214 l 969 694 l 1082 694 l 882 0 l 696 0 l 586 458 l 549 624 l 546 624 l 508 458 l 400 0 l 214 0 l 14 694 l 128 694 l 263 215 l 306 51 l 308 51 l 346 217 l 460 694 l 636 694 m 594 1007 l 717 1007 l 599 799 l 490 799 "},"ŵ":{"ha":1096,"x_min":0,"x_max":0,"o":"m 753 215 l 790 50 l 793 50 l 836 214 l 969 694 l 1082 694 l 882 0 l 696 0 l 586 458 l 549 624 l 546 624 l 508 458 l 400 0 l 214 0 l 14 694 l 128 694 l 263 215 l 306 51 l 308 51 l 346 217 l 460 694 l 636 694 m 482 1007 l 607 1007 l 747 799 l 649 799 l 544 951 l 440 799 l 342 799 "},"ẅ":{"ha":1096,"x_min":0,"x_max":0,"o":"m 753 215 l 790 50 l 793 50 l 836 214 l 969 694 l 1082 694 l 882 0 l 696 0 l 586 458 l 549 624 l 546 624 l 508 458 l 400 0 l 214 0 l 14 694 l 128 694 l 263 215 l 306 51 l 308 51 l 346 217 l 460 694 l 636 694 m 367 938 l 497 938 l 497 815 l 367 815 m 592 938 l 722 938 l 722 815 l 592 815 "},"ẁ":{"ha":1096,"x_min":0,"x_max":0,"o":"m 753 215 l 790 50 l 793 50 l 836 214 l 969 694 l 1082 694 l 882 0 l 696 0 l 586 458 l 549 624 l 546 624 l 508 458 l 400 0 l 214 0 l 14 694 l 128 694 l 263 215 l 306 51 l 308 51 l 346 217 l 460 694 l 636 694 m 494 1007 l 599 799 l 490 799 l 372 1007 "},"x":{"ha":656,"x_min":0,"x_max":0,"o":"m 251 347 l 22 694 l 150 694 l 242 549 l 328 404 l 331 404 l 418 549 l 510 694 l 633 694 l 404 347 l 633 0 l 506 0 l 414 146 l 328 290 l 325 290 l 238 146 l 146 0 l 22 0 "},"y":{"ha":675,"x_min":0,"x_max":0,"o":"m 326 14 l 250 14 l 21 694 l 138 694 l 292 224 l 342 63 l 344 63 l 394 224 l 546 694 l 661 694 l 343 -278 l 232 -278 "},"ý":{"ha":675,"x_min":0,"x_max":0,"o":"m 326 14 l 250 14 l 21 694 l 138 694 l 292 224 l 342 63 l 344 63 l 394 224 l 546 694 l 661 694 l 343 -278 l 232 -278 m 394 1007 l 517 1007 l 399 799 l 290 799 "},"ŷ":{"ha":675,"x_min":0,"x_max":0,"o":"m 326 14 l 250 14 l 21 694 l 138 694 l 292 224 l 342 63 l 344 63 l 394 224 l 546 694 l 661 694 l 343 -278 l 232 -278 m 282 1007 l 407 1007 l 547 799 l 449 799 l 344 951 l 240 799 l 142 799 "},"ÿ":{"ha":675,"x_min":0,"x_max":0,"o":"m 326 14 l 250 14 l 21 694 l 138 694 l 292 224 l 342 63 l 344 63 l 394 224 l 546 694 l 661 694 l 343 -278 l 232 -278 m 167 938 l 297 938 l 297 815 l 167 815 m 392 938 l 522 938 l 522 815 l 392 815 "},"ỳ":{"ha":675,"x_min":0,"x_max":0,"o":"m 326 14 l 250 14 l 21 694 l 138 694 l 292 224 l 342 63 l 344 63 l 394 224 l 546 694 l 661 694 l 343 -278 l 232 -278 m 294 1007 l 399 799 l 290 799 l 172 1007 "},"z":{"ha":615,"x_min":0,"x_max":0,"o":"m 439 597 l 56 597 l 56 694 l 553 694 l 553 579 l 169 97 l 567 97 l 567 0 l 56 0 l 56 115 "},"ž":{"ha":615,"x_min":0,"x_max":0,"o":"m 439 597 l 56 597 l 56 694 l 553 694 l 553 579 l 169 97 l 567 97 l 567 0 l 56 0 l 56 115 m 214 1007 l 318 854 l 422 1007 l 521 1007 l 381 799 l 256 799 l 115 1007 "},"ª":{"ha":694,"x_min":0,"x_max":0,"o":"m 279 -14 b 67 168 144 -14 67 64 b 272 376 67 285 164 350 l 503 432 l 503 454 b 347 614 503 572 443 614 b 181 461 242 614 185 564 l 69 461 b 353 708 76 622 197 708 b 614 443 522 708 614 604 l 614 0 l 503 0 l 503 117 b 279 -14 450 33 382 -14 m 178 179 b 307 74 178 107 231 74 b 503 261 414 74 503 140 l 503 346 l 300 297 b 178 179 218 278 178 243 "},"º":{"ha":761,"x_min":0,"x_max":0,"o":"m 381 -14 b 53 347 185 -14 53 135 b 381 708 53 560 185 708 b 708 347 576 708 708 560 b 381 -14 708 135 576 -14 m 165 326 b 381 83 165 167 258 83 b 596 326 503 83 596 167 l 596 368 b 381 611 596 528 503 611 b 165 368 258 611 165 528 l 165 326 "},"Ω":{"ha":992,"x_min":0,"x_max":0,"o":"m 56 100 l 263 100 b 63 486 143 167 63 303 b 496 958 63 769 251 958 b 929 486 740 958 929 769 b 729 100 929 303 849 167 l 936 100 l 936 0 l 538 0 l 538 96 b 815 451 700 103 815 246 l 815 507 b 496 856 815 721 683 856 b 176 507 308 856 176 721 l 176 451 b 454 96 176 246 292 103 l 454 0 l 56 0 "},"μ":{"ha":736,"x_min":0,"x_max":0,"o":"m 85 694 l 196 694 l 196 256 b 353 90 196 138 249 90 b 540 294 458 90 540 143 l 540 694 l 651 694 l 651 0 l 540 0 l 540 129 b 319 -7 489 51 421 -7 b 196 33 271 -7 229 7 l 196 -278 l 85 -278 "},"π":{"ha":951,"x_min":0,"x_max":0,"o":"m 778 0 b 632 144 671 0 632 49 l 632 597 l 313 597 l 313 0 l 201 0 l 201 597 l 42 597 l 42 694 l 910 694 l 910 597 l 743 597 l 743 140 b 783 97 743 103 750 97 l 849 97 l 849 0 l 778 0 "},"½":{"ha":833,"x_min":0,"x_max":0,"o":""},"¼":{"ha":833,"x_min":0,"x_max":0,"o":""},"¾":{"ha":833,"x_min":0,"x_max":0,"o":""},"¹":{"ha":778,"x_min":0,"x_max":0,"o":"m 97 100 l 361 100 l 361 821 l 97 689 l 97 806 l 381 944 l 472 944 l 472 100 l 708 100 l 708 0 l 97 0 "},"²":{"ha":778,"x_min":0,"x_max":0,"o":"m 72 625 b 393 958 78 825 200 958 b 700 665 576 958 700 838 b 479 306 700 528 622 429 l 243 100 l 707 100 l 707 0 l 88 0 l 88 100 l 392 365 b 588 661 532 488 588 557 b 389 858 588 788 506 858 b 185 625 268 858 188 781 l 72 625 "},"³":{"ha":778,"x_min":0,"x_max":0,"o":"m 93 944 l 679 944 l 679 839 l 410 575 b 710 294 594 569 710 464 b 382 -14 710 113 575 -14 b 67 299 193 -14 71 114 l 179 299 b 385 86 181 157 268 86 b 597 292 507 86 597 161 b 381 494 597 418 511 494 l 268 494 l 268 565 l 553 844 l 93 844 "}," ":{"ha":1389,"x_min":0,"x_max":0,"o":""}," ":{"ha":694,"x_min":0,"x_max":0,"o":""}," ":{"ha":778,"x_min":0,"x_max":0,"o":""}," ":{"ha":199,"x_min":0,"x_max":0,"o":""}," ":{"ha":250,"x_min":0,"x_max":0,"o":""}," ":{"ha":278,"x_min":0,"x_max":0,"o":""},".":{"ha":278,"x_min":0,"x_max":0,"o":"m 69 132 l 208 132 l 208 0 l 69 0 "},",":{"ha":278,"x_min":0,"x_max":0,"o":"m 69 132 l 208 132 l 208 0 l 147 -174 l 51 -174 l 128 0 l 69 0 "},":":{"ha":278,"x_min":0,"x_max":0,"o":"m 69 694 l 208 694 l 208 563 l 69 563 m 69 132 l 208 132 l 208 0 l 69 0 "},";":{"ha":278,"x_min":0,"x_max":0,"o":"m 69 132 l 208 132 l 208 0 l 147 -174 l 51 -174 l 128 0 l 69 0 m 69 694 l 208 694 l 208 563 l 69 563 "},"…":{"ha":833,"x_min":0,"x_max":0,"o":"m 625 132 l 764 132 l 764 0 l 625 0 m 69 132 l 208 132 l 208 0 l 69 0 m 347 132 l 486 132 l 486 0 l 347 0 "},"!":{"ha":278,"x_min":0,"x_max":0,"o":"m 69 139 l 208 139 l 208 0 l 69 0 m 82 944 l 196 944 l 196 250 l 82 250 "},"¡":{"ha":278,"x_min":0,"x_max":0,"o":"m 208 556 l 69 556 l 69 694 l 208 694 m 82 444 l 196 444 l 196 -250 l 82 -250 "},"?":{"ha":697,"x_min":0,"x_max":0,"o":"m 267 139 l 406 139 l 406 0 l 267 0 m 33 646 b 346 958 43 833 165 958 b 642 685 518 958 642 846 b 436 372 642 564 571 486 l 267 228 l 267 363 l 376 456 b 529 682 488 549 529 603 b 340 857 529 796 446 857 b 146 646 229 857 153 792 l 33 646 "},"¿":{"ha":628,"x_min":0,"x_max":0,"o":"m 408 556 l 269 556 l 269 694 l 408 694 m 33 10 b 239 322 33 131 104 208 l 408 467 l 408 332 l 299 239 b 146 13 188 146 146 92 b 335 -162 146 -101 229 -162 b 529 49 446 -162 522 -97 l 642 49 b 329 -264 632 -139 510 -264 b 33 10 157 -264 33 -151 "},"·":{"ha":236,"x_min":0,"x_max":0,"o":"m 49 549 l 188 549 l 188 417 l 49 417 "},"•":{"ha":419,"x_min":0,"x_max":0,"o":"m 111 569 l 308 569 l 308 375 l 111 375 "},"*":{"ha":650,"x_min":0,"x_max":0,"o":"m 375 1000 l 371 889 l 364 789 l 447 846 l 542 904 l 592 818 l 493 767 l 401 722 l 492 678 l 590 626 l 540 540 l 446 599 l 364 656 l 371 556 l 375 444 l 275 444 l 279 556 l 286 656 l 204 600 l 110 540 l 60 626 l 158 679 l 247 722 l 157 765 l 58 818 l 108 904 l 203 844 l 286 789 l 279 889 l 275 1000 "},"#":{"ha":915,"x_min":0,"x_max":0,"o":"m 188 264 l 28 264 l 28 353 l 208 353 l 271 594 l 97 594 l 97 683 l 292 683 l 360 944 l 461 944 l 393 683 l 626 683 l 694 944 l 796 944 l 728 683 l 888 683 l 888 594 l 707 594 l 644 353 l 825 353 l 825 264 l 624 264 l 556 0 l 454 0 l 522 264 l 289 264 l 221 0 l 119 0 m 543 353 l 606 594 l 372 594 l 310 353 "},"/":{"ha":653,"x_min":0,"x_max":0,"o":"m 510 1000 l 625 1000 l 143 -69 l 28 -69 "},"\\":{"ha":653,"x_min":0,"x_max":0,"o":"m 510 -69 l 28 1000 l 143 1000 l 625 -69 "},"-":{"ha":583,"x_min":0,"x_max":0,"o":"m 69 482 l 514 482 l 514 382 l 69 382 "},"­":{"ha":583,"x_min":0,"x_max":0,"o":"m 69 482 l 514 482 l 514 382 l 69 382 "},"–":{"ha":833,"x_min":0,"x_max":0,"o":"m 69 482 l 764 482 l 764 382 l 69 382 "},"—":{"ha":1389,"x_min":0,"x_max":0,"o":"m 69 482 l 1319 482 l 1319 382 l 69 382 "},"_":{"ha":722,"x_min":0,"x_max":0,"o":"m 0 -125 l 722 -125 l 722 -222 l 0 -222 "},"(":{"ha":417,"x_min":0,"x_max":0,"o":"m 267 -222 b 83 389 140 -49 83 185 b 267 1000 83 593 140 826 l 389 1000 b 197 389 256 826 197 593 b 389 -222 197 185 256 -49 l 267 -222 "},")":{"ha":417,"x_min":0,"x_max":0,"o":"m 28 -222 b 219 389 161 -49 219 185 b 28 1000 219 593 161 826 l 150 1000 b 333 389 276 826 333 593 b 150 -222 333 185 276 -49 l 28 -222 "},"{":{"ha":438,"x_min":0,"x_max":0,"o":"m 28 440 l 49 440 b 138 539 119 440 138 454 l 138 782 b 353 1000 138 928 194 1000 l 410 1000 l 410 903 l 358 903 b 246 790 267 903 246 888 l 246 561 b 157 389 246 474 219 413 b 246 217 219 365 246 304 l 246 -12 b 358 -125 246 -110 267 -125 l 410 -125 l 410 -222 l 353 -222 b 138 -4 194 -222 138 -150 l 138 239 b 49 338 138 324 119 338 l 28 338 "},"}":{"ha":438,"x_min":0,"x_max":0,"o":"m 28 -125 l 79 -125 b 192 -12 171 -125 192 -110 l 192 217 b 281 389 192 304 218 365 b 192 561 218 413 192 474 l 192 790 b 79 903 192 888 171 903 l 28 903 l 28 1000 l 85 1000 b 300 782 243 1000 300 928 l 300 539 b 389 440 300 454 318 440 l 410 440 l 410 338 l 389 338 b 300 239 318 338 300 324 l 300 -4 b 85 -222 300 -150 243 -222 l 28 -222 "},"[":{"ha":396,"x_min":0,"x_max":0,"o":"m 90 1000 l 368 1000 l 368 900 l 199 900 l 199 -122 l 368 -122 l 368 -222 l 90 -222 "},"]":{"ha":396,"x_min":0,"x_max":0,"o":"m 28 -222 l 28 -122 l 197 -122 l 197 900 l 28 900 l 28 1000 l 306 1000 l 306 -222 "},"‚":{"ha":278,"x_min":0,"x_max":0,"o":"m 69 132 l 208 132 l 208 0 l 147 -174 l 51 -174 l 128 0 l 69 0 "},"„":{"ha":458,"x_min":0,"x_max":0,"o":"m 250 132 l 389 132 l 389 0 l 328 -174 l 232 -174 l 308 0 l 250 0 m 128 0 l 69 0 l 69 132 l 208 132 l 208 0 l 147 -174 l 51 -174 "},"“":{"ha":458,"x_min":0,"x_max":0,"o":"m 208 667 l 69 667 l 69 799 l 131 972 l 226 972 l 150 799 l 208 799 m 250 799 l 311 972 l 407 972 l 331 799 l 389 799 l 389 667 l 250 667 "},"”":{"ha":458,"x_min":0,"x_max":0,"o":"m 250 972 l 389 972 l 389 840 l 328 667 l 232 667 l 308 840 l 250 840 m 128 840 l 69 840 l 69 972 l 208 972 l 208 840 l 147 667 l 51 667 "},"‘":{"ha":278,"x_min":0,"x_max":0,"o":"m 208 667 l 69 667 l 69 799 l 131 972 l 226 972 l 150 799 l 208 799 "},"’":{"ha":278,"x_min":0,"x_max":0,"o":"m 69 972 l 208 972 l 208 840 l 147 667 l 51 667 l 128 840 l 69 840 "},"«":{"ha":671,"x_min":0,"x_max":0,"o":"m 222 653 l 338 653 l 167 361 l 338 69 l 222 69 l 56 361 m 500 653 l 615 653 l 444 361 l 615 69 l 500 69 l 333 361 "},"»":{"ha":671,"x_min":0,"x_max":0,"o":"m 449 69 l 333 69 l 504 361 l 333 653 l 449 653 l 615 361 m 226 361 l 56 653 l 171 653 l 338 361 l 171 69 l 56 69 "},"‹":{"ha":393,"x_min":0,"x_max":0,"o":"m 222 653 l 338 653 l 167 361 l 338 69 l 222 69 l 56 361 "},"›":{"ha":393,"x_min":0,"x_max":0,"o":"m 171 69 l 56 69 l 226 361 l 56 653 l 171 653 l 338 361 "},"\"":{"ha":411,"x_min":0,"x_max":0,"o":"m 69 972 l 183 972 l 178 667 l 75 667 m 342 972 l 336 667 l 233 667 l 228 972 "},"'":{"ha":253,"x_min":0,"x_max":0,"o":"m 69 972 l 183 972 l 178 667 l 75 667 "},"ƒ":{"ha":833,"x_min":0,"x_max":0,"o":""},"⚪":{"ha":792,"x_min":0,"x_max":0,"o":"m 396 -14 b 35 347 193 -14 35 144 b 396 708 35 550 193 708 b 757 347 599 708 757 550 b 396 -14 757 144 599 -14 m 139 347 b 396 88 139 194 247 88 b 653 347 544 88 653 194 b 396 607 653 500 544 607 b 139 347 247 607 139 500 "},"⚫":{"ha":792,"x_min":0,"x_max":0,"o":"m 396 -14 b 35 347 193 -14 35 144 b 396 708 35 550 193 708 b 757 347 599 708 757 550 b 396 -14 757 144 599 -14 "},"":{"ha":1157,"x_min":0,"x_max":0,"o":"m 731 222 l 603 0 l 347 0 l 603 443 m 297 472 l 169 694 l 297 915 l 553 472 l 425 250 l 169 250 l 42 472 m 603 944 l 860 944 l 731 722 l 988 722 l 1115 501 l 603 501 l 475 722 m 860 443 l 988 222 l 860 0 l 731 222 "},"@":{"ha":1268,"x_min":0,"x_max":0,"o":"m 615 -246 b 64 297 290 -246 64 -22 b 661 917 64 643 315 917 b 1204 407 958 917 1204 708 b 844 14 1204 190 1071 14 l 760 14 l 781 139 b 565 14 736 63 663 14 b 333 279 439 14 333 96 b 638 653 333 447 428 653 b 846 507 744 653 815 599 l 869 639 l 971 639 l 878 107 b 1104 407 1026 115 1104 254 b 661 822 1104 656 904 822 b 164 301 376 822 164 590 b 619 -149 164 36 350 -149 b 950 -69 725 -149 844 -124 l 950 -174 b 615 -246 844 -225 721 -246 m 436 285 b 593 107 436 168 493 107 b 814 374 754 107 814 272 b 653 560 814 500 743 560 b 436 285 510 560 436 414 "},"&":{"ha":833,"x_min":0,"x_max":0,"o":"m 33 222 b 204 476 33 343 125 425 l 264 515 b 150 738 201 588 150 644 b 378 958 150 869 251 958 b 596 761 493 958 596 889 b 439 529 596 658 524 590 l 406 504 l 561 321 l 690 569 l 808 569 l 624 247 l 835 0 l 694 0 l 563 157 b 294 -14 500 53 418 -14 b 33 222 140 -14 33 90 m 142 226 b 299 81 142 142 207 81 b 501 231 390 81 450 144 l 319 449 l 272 413 b 142 226 192 350 142 306 m 260 738 b 349 569 260 674 299 628 l 381 593 b 490 757 439 638 490 689 b 378 864 490 821 442 864 b 260 738 297 864 260 801 "},"¶":{"ha":713,"x_min":0,"x_max":0,"o":"m 522 844 l 414 844 l 414 0 l 314 0 l 314 428 b 43 686 150 438 43 535 b 338 944 43 844 161 944 l 622 944 l 622 0 l 522 0 "},"§":{"ha":724,"x_min":0,"x_max":0,"o":"m 308 549 b 278 563 297 553 288 558 b 158 444 203 554 158 517 b 271 318 158 368 213 343 l 415 257 b 446 243 426 253 436 247 b 565 361 521 251 565 289 b 453 488 565 438 511 463 l 308 549 m 60 435 b 190 614 60 536 124 594 b 125 756 149 647 125 690 b 360 958 125 875 211 958 b 613 708 536 958 613 835 l 515 708 b 360 867 515 799 467 867 b 225 756 271 867 225 819 b 331 642 225 692 269 668 l 483 578 b 664 371 589 533 664 485 b 533 192 664 269 600 211 b 599 50 575 158 599 115 b 364 -153 599 -69 513 -153 b 111 97 188 -153 111 -29 l 208 97 b 364 -61 208 7 257 -61 b 499 50 453 -61 499 -14 b 393 164 499 114 454 138 l 240 228 b 60 435 135 272 60 321 "},"©":{"ha":1083,"x_min":0,"x_max":0,"o":"m 542 -14 b 56 472 269 -14 56 200 b 542 958 56 744 269 958 b 1028 472 814 958 1028 744 b 542 -14 1028 200 814 -14 m 156 472 b 542 81 156 242 315 81 b 928 472 768 81 928 242 b 542 864 928 703 768 864 b 156 472 315 864 156 703 m 276 472 b 543 756 276 646 392 756 b 796 550 694 756 783 653 l 693 550 b 543 664 683 619 625 664 b 382 489 449 664 382 603 l 382 456 b 543 281 382 342 449 281 b 693 394 625 281 683 325 l 796 394 b 543 189 783 292 694 189 b 276 472 392 189 276 299 "},"®":{"ha":792,"x_min":0,"x_max":0,"o":"m 396 292 b 35 653 193 292 35 450 b 396 1014 35 856 193 1014 b 757 653 599 1014 757 856 b 396 292 757 450 599 292 m 121 653 b 396 372 121 488 236 372 b 671 653 556 372 671 488 b 396 933 671 818 556 933 b 121 653 236 933 121 818 m 257 861 l 408 861 b 557 735 496 861 557 811 b 457 618 557 674 518 632 l 575 456 l 479 456 l 375 613 l 335 613 l 335 456 l 257 456 m 408 675 b 478 733 453 675 478 696 b 408 792 478 771 453 792 l 335 792 l 335 675 "},"™":{"ha":1092,"x_min":0,"x_max":0,"o":"m 178 858 l 19 858 l 19 944 l 431 944 l 431 858 l 272 858 l 272 444 l 178 444 m 496 944 l 653 944 l 768 521 l 883 944 l 1042 944 l 1042 444 l 947 444 l 947 721 l 949 890 l 947 890 l 904 726 l 828 444 l 704 444 l 629 721 l 586 885 l 585 885 l 586 715 l 586 444 l 496 444 "},"°":{"ha":528,"x_min":0,"x_max":0,"o":"m 264 514 b 42 736 139 514 42 611 b 264 958 42 861 139 958 b 486 736 389 958 486 861 b 264 514 486 611 389 514 m 139 736 b 264 606 139 660 190 606 b 389 736 338 606 389 660 b 264 867 389 813 338 867 b 139 736 190 867 139 813 "},"′":{"ha":317,"x_min":0,"x_max":0,"o":"m 147 972 l 261 972 l 144 667 l 42 667 "},"″":{"ha":492,"x_min":0,"x_max":0,"o":"m 147 972 l 261 972 l 144 667 l 42 667 m 322 972 l 436 972 l 319 667 l 217 667 "},"|":{"ha":267,"x_min":0,"x_max":0,"o":"m 183 1000 l 183 -208 l 83 -208 l 83 1000 "},"¦":{"ha":267,"x_min":0,"x_max":0,"o":"m 183 1000 l 183 444 l 83 444 l 83 1000 m 83 347 l 183 347 l 183 -208 l 83 -208 "},"†":{"ha":739,"x_min":0,"x_max":0,"o":"m 319 600 l 69 600 l 69 694 l 319 694 l 319 944 l 419 944 l 419 694 l 669 694 l 669 600 l 419 600 l 419 -139 l 319 -139 "},"‡":{"ha":739,"x_min":0,"x_max":0,"o":"m 419 944 l 419 694 l 669 694 l 669 600 l 419 600 l 419 206 l 669 206 l 669 111 l 419 111 l 419 -139 l 319 -139 l 319 111 l 69 111 l 69 206 l 319 206 l 319 600 l 69 600 l 69 694 l 319 694 l 319 944 "},"⬥":{"ha":778,"x_min":0,"x_max":0,"o":"m 757 347 l 389 -21 l 21 347 l 389 715 "},"⬦":{"ha":778,"x_min":0,"x_max":0,"o":"m 21 347 l 389 715 l 757 347 l 389 -21 m 389 136 l 600 347 l 389 558 l 178 347 "},"¢":{"ha":739,"x_min":0,"x_max":0,"o":"m 329 -10 b 53 347 168 14 53 146 b 329 704 53 549 168 681 l 329 792 l 435 792 l 435 704 b 682 458 582 683 667 571 l 571 458 b 432 608 557 540 504 596 l 432 86 b 571 236 504 99 557 154 l 682 236 b 435 -10 667 124 582 11 l 435 -97 l 329 -97 m 167 326 b 332 88 167 186 239 104 l 332 607 b 167 368 239 590 167 508 l 167 326 "},"¤":{"ha":858,"x_min":0,"x_max":0,"o":"m 429 194 b 267 244 368 194 313 213 l 135 106 l 63 178 l 201 310 b 151 472 169 356 151 411 b 201 635 151 533 169 589 l 63 767 l 135 839 l 267 700 b 429 750 313 732 368 750 b 592 700 490 750 546 732 l 724 839 l 796 767 l 657 635 b 707 472 689 589 707 533 b 657 310 707 411 689 356 l 796 178 l 724 106 l 592 244 b 429 194 546 213 490 194 m 251 472 b 429 289 251 363 325 289 b 607 472 533 289 607 363 b 429 656 607 582 533 656 b 251 472 325 656 251 582 "},"$":{"ha":806,"x_min":0,"x_max":0,"o":"m 350 -4 b 56 292 160 18 65 150 l 167 292 b 353 92 171 196 235 106 l 353 428 l 318 436 b 69 692 186 469 69 540 b 350 949 69 833 181 933 l 350 1056 l 456 1056 l 456 949 b 750 653 646 926 740 794 l 639 653 b 453 853 635 749 571 839 l 453 517 l 488 508 b 736 253 619 475 736 404 b 456 -4 736 111 625 11 l 456 -111 l 350 -111 m 183 703 b 343 544 183 617 250 568 l 353 542 l 353 853 b 183 703 250 844 183 786 m 453 92 b 622 243 556 100 622 158 b 463 400 622 328 558 376 l 453 403 l 453 92 "},"€":{"ha":1067,"x_min":0,"x_max":0,"o":"m 649 -14 b 226 319 442 -14 278 108 l 63 319 l 63 414 l 211 414 b 208 472 210 433 208 453 b 211 531 208 492 210 511 l 63 531 l 63 625 l 226 625 b 649 958 278 836 442 958 b 1044 625 885 958 1019 803 l 932 625 b 649 858 910 768 801 858 b 339 625 497 858 381 769 l 785 625 l 750 531 l 324 531 b 322 500 322 521 322 510 l 322 444 b 324 414 322 435 322 424 l 719 414 l 685 319 l 339 319 b 649 86 381 175 497 86 b 932 319 801 86 910 176 l 1044 319 b 649 -14 1019 142 885 -14 "},"£":{"ha":772,"x_min":0,"x_max":0,"o":"m 49 100 l 175 100 b 232 258 238 124 246 194 l 206 382 l 63 382 l 63 476 l 185 476 l 160 593 b 433 958 124 760 206 958 b 717 660 601 958 714 844 l 611 660 b 428 856 606 796 528 856 b 265 621 293 856 238 749 l 296 476 l 586 476 l 586 382 l 317 382 l 335 296 b 306 100 354 204 344 139 l 724 100 l 724 0 l 49 0 "},"¥":{"ha":765,"x_min":0,"x_max":0,"o":"m 328 249 l 65 249 l 65 321 l 328 321 l 328 415 l 65 415 l 65 488 l 274 488 l 28 944 l 151 944 l 385 501 l 617 944 l 738 944 l 493 488 l 701 488 l 701 415 l 439 415 l 439 321 l 701 321 l 701 249 l 439 249 l 439 0 l 328 0 "},"≧":{"ha":778,"x_min":0,"x_max":0,"o":"m 56 350 l 56 463 l 631 654 l 56 846 l 56 958 l 722 729 l 722 579 m 56 97 l 722 97 l 722 0 l 56 0 m 56 278 l 722 278 l 722 181 l 56 181 "},"≦":{"ha":778,"x_min":0,"x_max":0,"o":"m 722 958 l 722 846 l 147 654 l 722 463 l 722 350 l 56 579 l 56 729 m 56 97 l 722 97 l 722 0 l 56 0 m 56 278 l 722 278 l 722 181 l 56 181 "},"+":{"ha":778,"x_min":0,"x_max":0,"o":"m 56 510 l 338 510 l 338 792 l 440 792 l 440 510 l 722 510 l 722 407 l 440 407 l 440 125 l 338 125 l 338 407 l 56 407 "},"−":{"ha":778,"x_min":0,"x_max":0,"o":"m 56 510 l 722 510 l 722 407 l 56 407 "},"×":{"ha":778,"x_min":0,"x_max":0,"o":"m 89 231 l 317 458 l 89 686 l 161 758 l 389 531 l 617 758 l 689 686 l 461 458 l 689 231 l 617 158 l 389 386 l 161 158 "},"÷":{"ha":778,"x_min":0,"x_max":0,"o":"m 56 510 l 722 510 l 722 407 l 56 407 m 319 264 l 458 264 l 458 125 l 319 125 m 319 792 l 458 792 l 458 653 l 319 653 "},"=":{"ha":778,"x_min":0,"x_max":0,"o":"m 56 635 l 722 635 l 722 532 l 56 532 m 56 357 l 722 357 l 722 254 l 56 254 "},"≠":{"ha":778,"x_min":0,"x_max":0,"o":"m 233 254 l 56 254 l 56 357 l 288 357 l 381 532 l 56 532 l 56 635 l 435 635 l 522 799 l 632 799 l 544 635 l 722 635 l 722 532 l 490 532 l 397 357 l 722 357 l 722 254 l 343 254 l 256 90 l 146 90 "},">":{"ha":778,"x_min":0,"x_max":0,"o":"m 56 815 l 722 524 l 722 365 l 56 74 l 56 190 l 650 444 l 56 699 "},"<":{"ha":778,"x_min":0,"x_max":0,"o":"m 128 444 l 722 190 l 722 74 l 56 365 l 56 524 l 722 815 l 722 699 "},"≥":{"ha":778,"x_min":0,"x_max":0,"o":"m 56 229 l 56 343 l 643 569 l 56 796 l 56 910 l 722 646 l 722 493 m 56 103 l 722 103 l 722 0 l 56 0 "},"≤":{"ha":778,"x_min":0,"x_max":0,"o":"m 722 910 l 722 796 l 135 569 l 722 343 l 722 229 l 56 493 l 56 646 m 56 103 l 722 103 l 722 0 l 56 0 "},"±":{"ha":778,"x_min":0,"x_max":0,"o":"m 56 103 l 722 103 l 722 0 l 56 0 m 56 621 l 338 621 l 338 903 l 440 903 l 440 621 l 722 621 l 722 518 l 440 518 l 440 236 l 338 236 l 338 518 l 56 518 "},"≈":{"ha":778,"x_min":0,"x_max":0,"o":"m 56 615 b 246 676 121 656 181 676 b 546 592 379 676 431 592 b 722 656 606 592 657 614 l 722 551 b 532 490 657 511 597 490 b 232 575 399 490 347 575 b 56 511 172 575 121 553 l 56 615 m 56 338 b 246 399 121 378 181 399 b 546 314 379 399 431 314 b 722 378 606 314 657 336 l 722 274 b 532 213 657 233 597 213 b 232 297 399 213 347 297 b 56 233 172 297 121 275 "},"~":{"ha":861,"x_min":0,"x_max":0,"o":"m 625 349 b 476 394 572 349 531 368 l 328 467 b 240 493 296 482 269 493 b 153 393 182 493 153 451 l 153 369 l 56 371 l 56 399 b 236 594 56 532 140 594 b 385 549 289 594 331 575 l 533 476 b 621 450 565 461 592 450 b 708 550 679 450 708 492 l 708 574 l 806 572 l 806 544 b 625 349 806 411 721 349 "},"¬":{"ha":778,"x_min":0,"x_max":0,"o":"m 56 510 l 722 510 l 722 213 l 619 213 l 619 407 l 56 407 "},"^":{"ha":683,"x_min":0,"x_max":0,"o":"m 411 1000 l 642 542 l 521 542 l 342 924 l 163 542 l 42 542 l 272 1000 "},"∞":{"ha":1111,"x_min":0,"x_max":0,"o":"m 826 236 b 556 396 721 236 650 301 b 285 236 461 301 390 236 b 56 465 157 236 56 338 b 285 694 56 593 157 694 b 556 535 390 694 461 629 b 826 694 650 629 721 694 b 1056 465 954 694 1056 593 b 826 236 1056 338 954 236 m 161 465 b 288 342 161 396 215 342 b 486 465 361 342 419 397 b 288 589 419 533 361 589 b 161 465 215 589 161 535 m 625 465 b 824 342 692 397 750 342 b 950 465 896 342 950 396 b 824 589 950 535 896 589 b 625 465 750 589 692 533 "},"∅":{"ha":1056,"x_min":0,"x_max":0,"o":"m 528 -14 b 235 82 417 -14 315 21 l 160 0 l 28 0 l 164 147 b 42 472 88 233 42 346 b 528 958 42 744 256 958 b 821 863 639 958 740 924 l 896 944 l 1028 944 l 892 797 b 1014 472 968 711 1014 599 b 528 -14 1014 200 800 -14 m 156 472 b 236 226 156 375 185 290 l 749 785 b 528 850 689 826 613 850 b 156 472 310 850 156 694 m 307 160 b 528 94 367 118 443 94 b 900 472 746 94 900 250 b 819 718 900 569 871 654 l 307 160 "},"∫":{"ha":393,"x_min":0,"x_max":0,"o":"m 218 33 b 8 -172 207 -99 154 -172 l -42 -172 l -42 -78 l 8 -78 b 108 15 79 -78 103 -57 l 175 842 b 385 1047 186 974 239 1047 l 435 1047 l 435 953 l 385 953 b 285 860 314 953 290 932 l 218 33 "},"Ω":{"ha":992,"x_min":0,"x_max":0,"o":"m 56 100 l 263 100 b 63 486 143 167 63 303 b 496 958 63 769 251 958 b 929 486 740 958 929 769 b 729 100 929 303 849 167 l 936 100 l 936 0 l 538 0 l 538 96 b 815 451 700 103 815 246 l 815 507 b 496 856 815 721 683 856 b 176 507 308 856 176 721 l 176 451 b 454 96 176 246 292 103 l 454 0 l 56 0 "},"∆":{"ha":917,"x_min":0,"x_max":0,"o":"m 42 100 l 383 944 l 533 944 l 875 100 l 875 0 l 42 0 m 758 100 l 458 856 l 158 100 "},"∏":{"ha":889,"x_min":0,"x_max":0,"o":"m 90 944 l 799 944 l 799 -139 l 688 -139 l 688 844 l 201 844 l 201 -139 l 90 -139 "},"∑":{"ha":729,"x_min":0,"x_max":0,"o":"m 42 944 l 688 944 l 688 844 l 172 844 l 476 444 l 476 361 l 172 -39 l 688 -39 l 688 -139 l 42 -139 l 42 -39 l 375 403 l 42 844 "},"√":{"ha":761,"x_min":0,"x_max":0,"o":"m 182 472 l 21 472 l 21 569 l 265 569 l 399 100 l 689 1083 l 803 1083 l 476 0 l 321 0 "},"∂":{"ha":758,"x_min":0,"x_max":0,"o":"m 372 -14 b 57 313 188 -14 57 122 b 349 625 57 497 185 625 b 588 458 469 625 558 556 l 588 486 b 261 849 588 738 456 849 l 171 849 l 171 951 l 256 951 b 701 472 513 951 701 801 l 701 417 b 372 -14 701 119 567 -14 m 171 306 b 372 89 171 167 257 89 b 581 319 510 89 581 201 b 379 522 581 446 500 522 b 171 306 254 522 171 442 "},"µ":{"ha":736,"x_min":0,"x_max":0,"o":"m 85 694 l 196 694 l 196 256 b 353 90 196 138 249 90 b 540 294 458 90 540 143 l 540 694 l 651 694 l 651 0 l 540 0 l 540 129 b 319 -7 489 51 421 -7 b 196 33 271 -7 229 7 l 196 -278 l 85 -278 "},"%":{"ha":1097,"x_min":0,"x_max":0,"o":"m 785 944 l 903 944 l 310 0 l 192 0 m 56 722 b 271 958 56 863 150 958 b 486 722 392 958 486 863 b 271 486 486 582 392 486 b 56 722 150 486 56 582 m 158 715 b 271 578 158 629 206 578 b 383 715 336 578 383 629 l 383 729 b 271 867 383 815 336 867 b 158 729 206 867 158 815 l 158 715 m 611 222 b 826 458 611 363 706 458 b 1042 222 947 458 1042 363 b 826 -14 1042 82 947 -14 b 611 222 706 -14 611 82 m 714 215 b 826 78 714 129 761 78 b 939 215 892 78 939 129 l 939 229 b 826 367 939 315 892 367 b 714 229 761 367 714 315 l 714 215 "},"‰":{"ha":1583,"x_min":0,"x_max":0,"o":"m 785 944 l 903 944 l 310 0 l 192 0 m 56 722 b 271 958 56 863 150 958 b 486 722 392 958 486 863 b 271 486 486 582 392 486 b 56 722 150 486 56 582 m 158 715 b 271 578 158 629 206 578 b 383 715 336 578 383 629 l 383 729 b 271 867 383 815 336 867 b 158 729 206 867 158 815 l 158 715 m 611 222 b 826 458 611 363 706 458 b 1042 222 947 458 1042 363 b 826 -14 1042 82 947 -14 b 611 222 706 -14 611 82 m 714 215 b 826 78 714 129 761 78 b 939 215 892 78 939 129 l 939 229 b 826 367 939 315 892 367 b 714 229 761 367 714 315 l 714 215 m 1097 222 b 1313 458 1097 363 1192 458 b 1528 222 1433 458 1528 363 b 1313 -14 1528 82 1433 -14 b 1097 222 1192 -14 1097 82 m 1200 215 b 1313 78 1200 129 1247 78 b 1425 215 1378 78 1425 129 l 1425 229 b 1313 367 1425 315 1378 367 b 1200 229 1247 367 1200 315 l 1200 215 "},"↑":{"ha":1028,"x_min":0,"x_max":0,"o":"m 69 538 l 514 958 l 958 538 l 958 392 l 808 538 l 569 772 l 569 0 l 458 0 l 458 772 l 219 538 l 69 392 "},"↗":{"ha":989,"x_min":0,"x_max":0,"o":"m 710 839 l 160 839 l 265 944 l 892 944 l 892 318 l 786 213 l 786 763 l 139 115 l 63 192 "},"→":{"ha":1111,"x_min":0,"x_max":0,"o":"m 635 182 l 867 419 l 97 419 l 97 525 l 867 525 l 635 763 l 486 917 l 635 917 l 1056 472 l 635 28 l 486 28 "},"↘":{"ha":989,"x_min":0,"x_max":0,"o":"m 139 829 l 786 182 l 786 732 l 892 626 l 892 0 l 265 0 l 160 106 l 710 106 l 63 753 "},"↓":{"ha":1028,"x_min":0,"x_max":0,"o":"m 69 553 l 219 407 l 458 172 l 458 944 l 569 944 l 569 172 l 808 407 l 958 553 l 958 407 l 514 -14 l 69 407 "},"↙":{"ha":989,"x_min":0,"x_max":0,"o":"m 97 626 l 203 732 l 203 182 l 850 829 l 926 753 l 279 106 l 829 106 l 724 0 l 97 0 "},"←":{"ha":1111,"x_min":0,"x_max":0,"o":"m 476 28 l 56 472 l 476 917 l 625 917 l 476 763 l 244 525 l 1014 525 l 1014 419 l 244 419 l 476 182 l 625 28 "},"↖":{"ha":989,"x_min":0,"x_max":0,"o":"m 97 944 l 724 944 l 829 839 l 279 839 l 926 192 l 850 115 l 203 763 l 203 213 l 97 318 "},"↔":{"ha":1583,"x_min":0,"x_max":0,"o":"m 1107 182 l 1339 419 l 244 419 l 476 182 l 625 28 l 476 28 l 56 472 l 476 917 l 625 917 l 476 763 l 244 525 l 1339 525 l 1107 763 l 958 917 l 1107 917 l 1528 472 l 1107 28 l 958 28 "},"↕":{"ha":1028,"x_min":0,"x_max":0,"o":"m 69 331 l 219 185 l 458 -50 l 458 994 l 219 760 l 69 614 l 69 760 l 514 1181 l 958 760 l 958 614 l 808 760 l 569 994 l 569 -50 l 808 185 l 958 331 l 958 185 l 514 -236 l 69 185 "},"↩":{"ha":1583,"x_min":0,"x_max":0,"o":"m 244 197 l 476 -40 l 625 -194 l 476 -194 l 56 250 l 476 694 l 625 694 l 476 540 l 244 303 l 1111 303 b 1417 571 1290 303 1417 393 b 1111 839 1417 749 1290 839 l 1014 839 l 1014 944 l 1111 944 b 1528 571 1353 944 1528 799 b 1111 197 1528 343 1353 197 "},"↪":{"ha":1583,"x_min":0,"x_max":0,"o":"m 472 197 b 56 571 231 197 56 343 b 472 944 56 799 231 944 l 569 944 l 569 839 l 472 839 b 167 571 293 839 167 749 b 472 303 167 393 293 303 l 1339 303 l 1107 540 l 958 694 l 1107 694 l 1528 250 l 1107 -194 l 958 -194 l 1107 -40 l 1339 197 l 472 197 "},"↺":{"ha":1083,"x_min":0,"x_max":0,"o":"m 597 -14 b 167 414 354 -14 167 174 l 278 414 b 597 92 278 225 410 92 b 917 414 785 92 917 225 b 569 736 917 603 785 736 l 229 736 l 342 631 l 490 486 l 342 486 l 56 789 l 342 1092 l 490 1092 l 342 947 l 229 842 l 569 842 b 1028 414 840 842 1028 654 b 597 -14 1028 174 840 -14 "},"↻":{"ha":1083,"x_min":0,"x_max":0,"o":"m 486 -14 b 56 414 243 -14 56 174 b 514 842 56 654 243 842 l 854 842 l 742 947 l 593 1092 l 742 1092 l 1028 789 l 742 486 l 593 486 l 742 631 l 854 736 l 514 736 b 167 414 299 736 167 603 b 486 92 167 225 299 92 b 806 414 674 92 806 225 l 917 414 b 486 -14 917 174 729 -14 "},"⟵":{"ha":1528,"x_min":0,"x_max":0,"o":"m 476 917 l 625 917 l 476 763 l 244 525 l 1431 525 l 1431 419 l 244 419 l 476 182 l 625 28 l 476 28 l 56 472 "},"⟶":{"ha":1528,"x_min":0,"x_max":0,"o":"m 97 525 l 1283 525 l 1051 763 l 903 917 l 1051 917 l 1472 472 l 1051 28 l 903 28 l 1051 182 l 1283 419 l 97 419 "},"●":{"ha":1056,"x_min":0,"x_max":0,"o":"m 528 -14 b 42 472 256 -14 42 200 b 528 958 42 744 256 958 b 1014 472 800 958 1014 744 b 528 -14 1014 200 800 -14 "},"○":{"ha":1056,"x_min":0,"x_max":0,"o":"m 528 -14 b 42 472 256 -14 42 200 b 528 958 42 744 256 958 b 1014 472 800 958 1014 744 b 528 -14 1014 200 800 -14 m 156 472 b 528 94 156 250 310 94 b 900 472 746 94 900 250 b 528 850 900 694 746 850 b 156 472 310 850 156 694 "},"◆":{"ha":1028,"x_min":0,"x_max":0,"o":"m 1007 472 l 514 -21 l 21 472 l 514 965 "},"◇":{"ha":1028,"x_min":0,"x_max":0,"o":"m 21 472 l 514 965 l 1007 472 l 514 -21 m 514 136 l 850 472 l 514 808 l 178 472 "},"◊":{"ha":786,"x_min":0,"x_max":0,"o":"m 56 472 l 303 944 l 481 944 l 731 472 l 482 0 l 304 0 m 394 40 l 613 472 l 394 904 l 174 472 "},"■":{"ha":1056,"x_min":0,"x_max":0,"o":"m 1000 944 l 1000 0 l 56 0 l 56 944 "},"□":{"ha":1056,"x_min":0,"x_max":0,"o":"m 1000 944 l 1000 0 l 56 0 l 56 944 m 889 111 l 889 833 l 167 833 l 167 111 "},"▪":{"ha":778,"x_min":0,"x_max":0,"o":"m 736 694 l 736 0 l 42 0 l 42 694 "},"▫":{"ha":778,"x_min":0,"x_max":0,"o":"m 42 694 l 736 694 l 736 0 l 42 0 m 628 108 l 628 586 l 150 586 l 150 108 "},"◻":{"ha":1056,"x_min":0,"x_max":0,"o":"m 1000 944 l 1000 0 l 56 0 l 56 944 m 889 111 l 889 833 l 167 833 l 167 111 "},"◼":{"ha":1056,"x_min":0,"x_max":0,"o":"m 1000 944 l 1000 0 l 56 0 l 56 944 "},"▲":{"ha":1125,"x_min":0,"x_max":0,"o":"m 563 963 l 1118 0 l 7 0 "},"▶":{"ha":918,"x_min":0,"x_max":0,"o":"m 911 472 l 56 -21 l 56 965 "},"▼":{"ha":1125,"x_min":0,"x_max":0,"o":"m 1118 944 l 563 -18 l 7 944 "},"◀":{"ha":918,"x_min":0,"x_max":0,"o":"m 863 -21 l 7 472 l 863 965 "},"△":{"ha":1125,"x_min":0,"x_max":0,"o":"m 563 963 l 1118 0 l 7 0 m 925 111 l 563 740 l 200 111 "},"▷":{"ha":918,"x_min":0,"x_max":0,"o":"m 56 965 l 911 472 l 56 -21 m 689 472 l 167 774 l 167 171 "},"▽":{"ha":1125,"x_min":0,"x_max":0,"o":"m 1118 944 l 563 -18 l 7 944 m 563 204 l 925 833 l 200 833 "},"◁":{"ha":918,"x_min":0,"x_max":0,"o":"m 7 472 l 863 965 l 863 -21 m 751 171 l 751 774 l 229 472 "},"̈":{"ha":0,"x_min":0,"x_max":0,"o":"m 169 938 l 300 938 l 300 815 l 169 815 m 394 938 l 525 938 l 525 815 l 394 815 "},"̇":{"ha":0,"x_min":0,"x_max":0,"o":"m 274 958 l 421 958 l 421 817 l 274 817 "},"̀":{"ha":0,"x_min":0,"x_max":0,"o":"m 175 1007 l 297 1007 l 401 799 l 293 799 "},"́":{"ha":0,"x_min":0,"x_max":0,"o":"m 293 799 l 397 1007 l 519 1007 l 401 799 "},"̂":{"ha":0,"x_min":0,"x_max":0,"o":"m 410 1007 l 550 799 l 451 799 l 347 951 l 243 799 l 144 799 l 285 1007 "},"̊":{"ha":0,"x_min":0,"x_max":0,"o":"m 347 792 b 203 929 265 792 203 850 b 347 1067 203 1008 265 1067 b 492 929 429 1067 492 1008 b 347 792 492 850 429 792 m 281 929 b 347 861 281 889 307 861 b 414 929 388 861 414 889 b 347 997 414 969 388 997 b 281 929 307 997 281 969 "},"̃":{"ha":0,"x_min":0,"x_max":0,"o":"m 454 817 b 336 861 404 817 374 836 l 311 878 b 240 908 281 899 263 908 b 182 821 197 908 182 869 l 100 821 b 240 989 100 925 150 989 b 358 944 290 989 321 969 l 383 928 b 454 897 414 907 432 897 b 513 985 497 897 513 936 l 594 985 b 454 817 594 883 544 817 "},"̧":{"ha":0,"x_min":0,"x_max":0,"o":"m 401 42 l 343 -53 b 489 -171 428 -56 489 -87 b 329 -292 489 -258 421 -292 l 260 -292 l 260 -210 l 338 -210 b 400 -162 368 -210 400 -200 b 338 -117 400 -125 368 -117 l 260 -117 l 260 -53 l 314 42 "},"̸":{"ha":0,"x_min":0,"x_max":0,"o":"m 792 750 l 147 -56 l 42 -56 l 686 750 "},"¨":{"ha":694,"x_min":0,"x_max":0,"o":"m 169 938 l 300 938 l 300 815 l 169 815 m 394 938 l 525 938 l 525 815 l 394 815 "},"˙":{"ha":694,"x_min":0,"x_max":0,"o":"m 274 958 l 421 958 l 421 817 l 274 817 "},"`":{"ha":694,"x_min":0,"x_max":0,"o":"m 175 1007 l 297 1007 l 401 799 l 293 799 "},"´":{"ha":694,"x_min":0,"x_max":0,"o":"m 293 799 l 397 1007 l 519 1007 l 401 799 "},"˝":{"ha":694,"x_min":0,"x_max":0,"o":"m 164 799 l 283 1007 l 400 1007 l 267 799 m 483 1007 l 600 1007 l 467 799 l 364 799 "},"ˆ":{"ha":694,"x_min":0,"x_max":0,"o":"m 410 1007 l 550 799 l 451 799 l 347 951 l 243 799 l 144 799 l 285 1007 "},"ˇ":{"ha":694,"x_min":0,"x_max":0,"o":"m 144 1007 l 243 1007 l 347 854 l 451 1007 l 550 1007 l 410 799 l 285 799 "},"˘":{"ha":694,"x_min":0,"x_max":0,"o":"m 347 792 b 143 1007 225 792 143 883 l 226 1007 b 347 875 226 928 274 875 b 468 1007 421 875 468 928 l 551 1007 b 347 792 551 883 469 792 "},"˚":{"ha":694,"x_min":0,"x_max":0,"o":"m 347 792 b 203 929 265 792 203 850 b 347 1067 203 1008 265 1067 b 492 929 429 1067 492 1008 b 347 792 492 850 429 792 m 281 929 b 347 861 281 889 307 861 b 414 929 388 861 414 889 b 347 997 414 969 388 997 b 281 929 307 997 281 969 "},"˜":{"ha":694,"x_min":0,"x_max":0,"o":"m 454 817 b 336 861 404 817 374 836 l 311 878 b 240 908 281 899 263 908 b 182 821 197 908 182 869 l 100 821 b 240 989 100 925 150 989 b 358 944 290 989 321 969 l 383 928 b 454 897 414 907 432 897 b 513 985 497 897 513 936 l 594 985 b 454 817 594 883 544 817 "},"¯":{"ha":694,"x_min":0,"x_max":0,"o":"m 139 931 l 556 931 l 556 847 l 139 847 "},"¸":{"ha":694,"x_min":0,"x_max":0,"o":"m 401 42 l 343 -53 b 489 -171 428 -56 489 -87 b 329 -292 489 -258 421 -292 l 260 -292 l 260 -210 l 338 -210 b 400 -162 368 -210 400 -200 b 338 -117 400 -125 368 -117 l 260 -117 l 260 -53 l 314 42 "},"˛":{"ha":694,"x_min":0,"x_max":0,"o":"m 347 0 b 243 -107 283 -25 243 -57 b 332 -175 243 -160 289 -175 l 368 -175 l 368 -264 l 319 -264 b 151 -132 238 -264 151 -231 b 282 25 151 -42 225 3 l 347 0 "}}}
